<mxfile host="65bd71144e">
    <diagram id="fJMPyNY0VIk_PwW9Uuqy" name="Page-1">
        <mxGraphModel dx="1910" dy="679" grid="0" gridSize="10" guides="1" tooltips="1" connect="1" arrows="1" fold="1" page="1" pageScale="1" pageWidth="1100" pageHeight="850" background="#ffffff" math="0" shadow="0">
            <root>
                <mxCell id="0"/>
                <mxCell id="1" parent="0"/>
                <mxCell id="2" value="" style="shape=image;verticalLabelPosition=bottom;labelBackgroundColor=default;verticalAlign=top;aspect=fixed;imageAspect=0;image=data:image/png,iVBORw0KGgoAAAANSUhEUgAAARcAAAHbCAYAAADh+d4bAAAAAXNSR0IArs4c6QAAAARnQU1BAACxjwv8YQUAAAAJcEhZcwAADsMAAA7DAcdvqGQAAJlHSURBVHhe7J0JQFRV//4/Mwz7LiiL4IKgqGhquWuZS1ouaamVS5ZLvllvpe2ltvjTytLU999b2usemUtlWZqmplG5p5mKVojILjsDAzPM8r/3zrBogEAuLOejh7ueywxwn/l+zz3nOSqLBAKBQHCNUduWAoFAcE0R4iIQCK4LQlwEAsF1QYiLQCC4LghxEQgE1wUhLgKB4LogxEUgEFwXhLgIBILrghAXgUBwXRDiIhAIrgvXrfu/xaSTSoGyrlKplKW0Zl23c5VW7W37BAJBfeS6RS4W7TF0fy5Cd3YehX++hSH2XUwX38ec+P+g4LztrOphzjjKqlkj6NTUHQcHd4I63ctza46TZbYet2SuYahbe149ZrTuKIt+C2OdreKmUqlR2zng7t+OgY8v52jWlfqaz46pgWjchvBxou3iAoGgWlw3cVGrNbj4tJdu0GAsZpO1WKxLSSasJ1WHzF3M6N6PxTkj+ehQCvl5Sfz8wVDS3+1L1yd2kVmV+MuuOU/tN0ivw4zJkMOFfe/QI3oug+9fxtmyepS7mw3bvenQ4gDrNsXW5NUKBA2e69jmYpGiAzV2Dl7KzSwX6YtUpHXpX/UwcGjBv4gM+3/s+ngyPYJcsZcil+a9H2PVrmWErJ/GvIMG27lVQ2XnjE/4cN789B16/fYOC3fm2Y5YyN65gR12fZg2tg3H1kVyWtZDgUBQLa6ruMhCgsUoLazCIi8VYamuthiP8dmGVIbPeIDAK16xuumDPHVvJpEbDlNOMnRV1AEjGN0rl727fqVI3mHJ4NsNu9AMHM64+++l7dlIPjlaPeESCATXW1yQPvLNkrgUC4siNnKSUU11yfmLM2nNCA9xtO0oixOtI1qSfeaPqqVGV6Jyo2lTD9LiE9FLm5ZL29iw15P7Hx6IV9txTOqWyGfrorA2TQsEgqpy/cRFFhFZWMwmzIqwyBGLVOQoxpRvO6mqyIJUMfL15evWRFtkjEajlCZpsJO+T9LWDfwY+CCT+jhJP50WPDBlALmfr+X7XNvJAoGgSlxfcSmTFintLso/aVf2PihKs55XFTxb09b3Imf+Ki9+0PPXmVhcQkPwLn7iXR0smVy8mE9Ai2A05ot8sSGKvOi36eZgfarkP+lrsqVoZu036TUWL4GgIXId0yKbsMhPiKQtOWixfZEOSZGLSSufVDU0t/LQOD+++X+fkaAEMRbSts1mxpJ9xJ//lGVbnRl1f3cclJOrhzn5W7Ye8WXQkFtQn9/ChqMdWBBtS+WUkse3jzrz/dovSFK+t0AgqArXOXIxoddllIiK/NWqNPJKdXCg+6v/49GLzzB4ykoOJuShbtac3P8OpnmraRzu/z7zBrnazq0i5kLSo79h3qQ5/Nb3NZ7r58AfmzbyW8Ro7guzs50k48qd40biFbWOjeeFuggEVeU6Ri4aRVzUTs1xaHQrGq/O2HlI0YF7B1Su7TGrXGznVRHv/iw9+CMv+HzNv3oE4tfpCb7SteHOe7rjtm8uj7z6HSmyaBnPsOA2e1tnOWtxvGMZF2VdMMWx7A4Hayc6By9C75rN4XZvsePTRwmxnGLjxjN0GnMfoWW1RcK5z0PcH3CU9Z+elpuoBQJBFbh+7v9yo236l5g9B0gCE2DbeX3QJx1k20kvhg8Jp7znSQKB4MZzfacWKcqiyGyHxsFdiSAEAkHDQcxbJBAIrgvXsc3lcgoLCzl27JhtSyAQ1HdumLicOnWKxx9/3LYlEAjqOzdMXOTsS2RgAkHD4YaJy9UwZ+4j7/cXyDs5k4LoF9D/+QrG869hvjgfCv6wnXUTMcexcWpnmjg74T95JYs7qRizrSZDJQWChkGtERe1vRNO3uGoHb2V8UjIxVJmeZMxnY3k3U1evPRbBnH/vcO2VyAQVEStERe5R6/GyQUHxVzKXFpsY5JuNhZtNnnurenQwhVHp1BmnbCwebjGdlQgEFxJ7REXWUBkITEXWQWluI1GGUZgO6XKWMg6/B8e6dUcN40Gz7DBvLI9QfF7sWQdZOmErvg7qbDzDGXgzM38JXstYObC0p60fGA2z90VirudGrfQu5n3YyZFB1+gXe93OZe0grtcmvHvvX+USYvMpO9/i/s6NMbFpQldJr3PK4M9eXCrMGkQNGxumLgYDAZSU1PZsGHDZeUy5PRHKmW9X6yNwNVTF0v6ZqYMeQfto1u5oM3jz7U9+WHiFNYnxbN67GCWWp5kV6KOnFMr6HNkGgOe249OqSkJzOffYnl2Dym6DPY9nMX8x/6DfY+FnP7pedo0fYxduov8p1+pubglaR2T7o/E780DpKaf4eNu+1izS1ErgaBBc8PEJScnh8zMTL7++uvLSilylGLz2ZWjFkVgqi8sMtq9n/Jd2PO8N6Uzvs5ONOn1OgcydvKI5RtWRXVn7pKH6ejjjFtwf2Yvm4Fm/Rp+tpnNOQyYxauDm+Pq6E2Xh0YSHh9jPVAuFhK/Ws1Pfefw9igp2nHx5dbH3+OZziJdEghumLg0btyYtm3bVhy52CKVYuc66z5pKYkMuj+k9ao26prJSknBEhSE3xXvzpyRRKpLS5qXMX6xC2hBcGEKqTb/KrVvI9ytq6BxxEF+TRVi5lJ8Iq7BgZSMyVb706K5EBeBoPa0uSjiYlREpGxDrhK75J+U8qp463lXRY23nx+qpCTSrtAFdaMA/HSxxJWZSsSUHMtFRz8al6iDSvpXVVQ0CQpAG59EibeeOZX4BPGIWiCoPeIiRQElaZG0Zc2IlC+2Y5VFEJfj3n88Q/54n1ciT5FtMJD1+0eM8O/AvMyhTOp9gDefWcfJzALyE/bx1swP0Y8dT6+aOE1JP77AEY/QM2o+s78+j7Ygk5OrXmZJefMmCQQNjFoUuciNuWYKcpNLREX+alUaeaXqqBqPYeX2p2HJQPwdnWh27yZaLvuSFzs2Z8rGHTxuWsLAAFc8I6YT1eVD9i4bVJoKVRN10KOs/2wUF56/jcaN2vPY0Q7cc4s99vZXmMIIBA2MGzYq+siRI8yYMUNZlkt2FOT9SoGlKSo7J9R2dqjV1qKS1nHtiMq+ke3kWozpJK9FDCX3f7G831u0vQgaLrUncvHsCQ5+OPj2wilwmLR6N5rGd6H2GYDKq1+tFRbjj/8moOlDrPtLi9Go5Y9P32Z1Rn8GdhTCImjY1B5xUUk3o88wLGoP2466gabPbNZPK+C9Pn44uQYz6L/2PPv1Eu6paZ4lENQTak9aJBAI6hW16GnR5ezatYslS5bYtgQCQV2j1orLhQsXOH36tG2rYgr1eqkUYio7s6NAILjp1FpxqQpZugL2/PwjG7/+iq927uCb778j6tAv/H7uDHFJcWTlZgqxEQhuEnVWXEySaOjNcEtEZ7p06Y5PYEv0Gheik7P44cRZNu38kc937+PYge9sNa6GmZyTkbwyuhvNvR3RODehw7AX2BBtHdJYu7CQn5xMrqKberaMdS6Zo0l+dO/g7k+7gY+z/GiWrYuQhcw1Q3GynSPP22Tn6ElQlzG8vT+tmt2IzFxY1gOXCduVUeYCQUXUWXHRG82KwOTb2ePq40uToGCate1AcIcuuLeOIK9pKN5Sidq9xVajcnL2P0uvfu+SNfIjDiflo7t0kCXdj/Fkr5H870LVewffCIyH59J7yFLOlgy3sqP5U/sxSD8Ps8lAzoV9vNMjmrmD72fZ2VIJ0LR7haNFspWFCX3WOT4fr2XxgzPZmi2iO8G1p06Ki1m6iS7m5pFdaCBXbyQ2S0tiTh4ZUpqUW6iXIhoLLk7O+DnZo9Nm2mpVgvEE701fjt+CbXwwoQt+zhrp0z+EAbM3sLj3CZZ/VrtmWjRnp5JmqEAQVHY4+4Qz/M1PeafXb7yzcCd5tkOlqNC4+NPtkQe4TXuKk8p0lALBtaVOiktsdh7phUUkawvILJDExGgiNb+QxFwdWZK45BcZCfd2I1+Xj1FfaKtVMeborWyO7cX4+4Iu/4GomjBp2yWOvNRBig0sZB1cyoSu/lJ6YYdn6EBmbv5LSkokzBdY2rMlD8x+jrtC3bFTuxF69zx+zJQEoLJjEpbMX1gysQfNPJ1w8Q1n8PNfcN5m/2DJOsx/HulFczcNGs8wBr+ynYvnlzFo+McknV1Id/eRRFY0n786gBGje5G7dxe/Ftn2lcGsl97X2s2caj2CoW2uHKpgNc4Knfwu84aF4KpxJqjndNZGlxpgmVP28M7oCBo5yGZcd/Pmj3IKdvV6goZDrRWX9PR0vvjiCyIiIkqKTIEkHKczcpWoJaOgkJQ8HalSxFJgNJJvKJKiFz1ZukJCGnmQm5uLqejqxk3Gi39ywTWM0EbljIe27bIkrGbs4KVYntxFoi6HUyv6cGTaAJ7bb2uTkUTk828tPLsnBV3GPh7Oms9j/7E97aromDmR9ZNH8V7maCJPXyLx4HvcEvUvxrx1nCJLOpunDOEd7aNsvaAl78+19PxhItP2j2HXtmkEhr/AIe1WxlfYWU+FW9OmeKTFk2j7ERjPLOA2e2u7i52THz1ePMltM8bTvtw5cM3ErFlBzMQdJGbHsmHYWZ4ePodDtmvp9+0hY+p24rVp7Hkkl3ceW8opJQCqvJ6g4VBrxWXWrFns2bOHzz77rKTIHEzKIF2KVrIkcUmTohU5ckmXlpfyCsiTxMUgiYyzyoKddAMVFkr7JIG5GvLYJbV0fsVYSNq2iqjuc1nycEd8nN0I7j+bZTM0rF/zM9ZAw4EBs15lcHNXHL278NDIcOJjEpUjFR2zpGxj3e4gHl84k75BHniHDuONucNIiozkaOZePv0ujOffm0JnX2ecmvTi9QMZ7Hw0oOqWENLPwihFWRpbYFLa5mLBVJDG75/ey/mZdzNrV/k/I5cR81nyQBu83Pzp++JCphg+IfKItQ3HUTbVGtLMaqo1bgztE2JIsOWOldUTNBxqrbg4OTnRqVOnyyKX+Nx89selcEmrIyFHS3pePpn5BWRLkYpWEhu5FBYV0cnXC2ORgfw8OXK5elpk16ItYfl/EmNLVcpSEL2LrYcukpyUikvL5pT6TNkR0CKYwpRUm5eLGt9GpWGExtFB8aWxUv4xU2oiqfpfmR2hKXna4zJ0NakJccSlp5BiCSLoSserKmMh8+JF8mUzrHKGOamdfGk/eh6z+qXy5ZaDtr1lUePfJqR0tLiUZjUPzCE53ZpjqRv7UDJQw05K28wmjMqPr/J6goZDrRWX8vj8zyRyikykSWKSnK2VRCafdG0eWfk6cnQ68qQ0yUW6+Zt5uKIv0JGbnYFGXYTJWPkftjpsGPe3+pl1n8dLQX0ZLBl8/epYHvvfn3gG+KGLjaPUZ8pEcuxFHP0al7rQVRb9lHNM7dsEH6c7+UD6yJejieJi1m3mQen7+amSSLrS8aqqmJP5dusRfAcN4ZZSy9/LUaml/yrsHco7wUx6fLItKpOQUrjYRF+C/YuNbyQxtK1dztXqCRoKdUpchoc2ZWrnMO5r15Jb/HzwcndD7eBIoUWFrsgslSL6NfejQIpa0i5dIj8rFU8PZ/LyKmr1tGHXgX+/P4G4F4bzrzWHScg3UJAZzTdz7+eJfT1469X+tBoxid4H3uSZdSelVCyfhH1vMfNDPWPH95KSnpqhbjqccb1/Z/GsFVK6l09h5hk+m9Yen35L+culP+OH/MH7r0RyKtuAIet3PhrhT4c3T2F2dMQ+T0oPtQZbtFAWM4Xp0mufN4k5v/Xltef64Ww7chkmLee/ncfSHxozfGRX287Lyd0yl9k7L5KnSybq7ZdY6zqJiV2u7lNT03qC+kWdEpdWni60l9KL3oE+3B8WyCMhTZjYsgnDg33oEdSYu1oF4Sl9ChullCMzK0NKrVwJufU+HBzLvb0uw/uu//LzV+Mp/N+DdPB2xLXpnbxyogf/PfAlU1qoUQdNYeOOxzEtGUiAqycR06Po8uFelg2qsEX16qhbMHXdZqapVzIm3BuP4P4sSB3FuvVPEKppzJiV23maJQz0d8Sp2b1sarmML1+MwLHDUEb5fsmo4CF8pDxGNhG37A4cpOhIrXbAK/QuZh9ux1s7PuXRkNKburRBV42dUwA9nj3Ore99ztsD3CRNOs/iLio6LYopid4cenZH825vfD3CeHR/V1bumEvnKihpTesJ6hd1flS0PGWJyWQiIzNT+qQswGA0IXcBOX3qd3p0uoXQViHYyWZTgmpgfaTc9vBraCPvoerONDWtJ6iP1KnIpTwcHBxwdnYmqGlT2oS2ol1YK0ID/Xho5AjatA4TwiIQ3CTqvLiURX7aotFo8PLyUkRHIBDcPIRZlEAguC7Uq8hFIBDUHoS4CASC60KtERdz5j7yfn+BvJMzKYh+Af2fr2A8/xrmi/Oh4A/bWdcZ818svtWFCdvL6apujub1EBXjdhZJ67Es7qRizDbRpV0gqIhaIy5qeyecvMNRO3pjMZukG1ieJK3MUiAQ1ClqT1pkMaNxcsHBLVgZd1NSbHNG1yrULZl1wsLm4aInh0BQEbWozUUSEFlIzEVWQbGNs5H3VVdbzBeW0jN0Mu/OG0aIqwbnoJ5MXxuN4ipi/oO3OnkzbU9xSmPm3IJbaPTY3pLt1N0LGBHmjnOjMPpNX83pK+1ILkuLLGQd/g+P9GqOm0b2NhnMK9sThAWkoMFzw8TFaDQqHi1bt269rFyGMl+0qSRiUcRGeVJe/cjFHLOGFTET2ZGYTeyGYZx9ejhzqmQqomfvjmQe3ZFEevQa7jo3i+GvHrCaQpWDJX0zU4a8g/bRrVzQ5vHn2p78MHEK65Or/5oFgvrEDROXzMxMLl26xJo1ay4rpchRijw62DZCWBGYmgmLgssI5i95gDZebvj3fZGFUwx8Ennk6hGF2o37FrzLqFB3XP1688KCSRg2fMbRCipq937Kd2HP896Uzvg6O9Gk1+scyNjJowGVjJAWCBoAN0xcmjRpQrt27SqOXGyRCmajTVTkfdJSEhl0fyjCUx3U/m0IKTUVIaB5IDnJ6ZRnvlD87RRUjWkeVDrQUe3fnMDsVNLLFRczWSkpWIKCqLHtikBQT6k9t4QiLtIdXCYtkhtyldgl/yQY4q3nVRFzejzJpaYiJMYm4hvsj4P0lu3URRiKihXFTHZ6mvTVhiWDxKRSgylj0nkSfJsSUK4nihpvPz9USUnU1HZFIKiv1KLPW1lcbGmRtGXNiJQvtmPVvHtztzB39k4u5ulIjnqbl9a6MmliF0lYGtOyuYV9m74lQfbhPb6CtzckK99Fwazly/nz2Z9SQEHSfv7vhU/wfnQinSsY/+jefzxD/nifVyJPkW0wkPX7R4zw78Cbp8Tjc0HDphZFLnJjrpmC3OQSUVFu+GJ9qS4OPemueZfevh6EPbqfrit3MFcxFfHk3nc/5p6Y54jw9KLLrBhGPjG41PDJrjmjh6r4v+6NcA97hJ96rubbOZ2o0Myt8RhWbn8algzE39GJZvduouWyL3kxQozGFjRsas/AxewoyPuVAktTVHZOqGXTbLW1yAbauHZEZd/IdnLlKI+i2x7mNW0k94iuKALBTaH2RC6ePaVoww8H3144BQ6TVu9G0/gu1D4DUHn1q7KwCASC2kHtEReVFGL4DMOiLvGUFwgEdZha1KArYeeGxtHNtlFz1C2e5lCBSIkEgptJ7RIXgUBQbxDiIhAIrgu1RlwsJh1mQ4ZSLEWZtpIFxmzpoJitTyCoa9SaR9Hm7Ch0iTtAEhk7jT1qjQY7O3npgLrxGHBpYztTIBDUBWpN5KJWa3DxaY9G8XORhwDYeuvKZlGlnfMFAkEdoRa1uVhQ26mxc/CSRKXYckEKqmxjjAQCQd2iVomLLCTy4EV54KIsLMoARmW/7ZSqYkpk+8t3E+HvhpNbUzqPXsD+dDn6MfPXom6EjnmKCRHeuIU8yW6dMHsSCK4HN0xckpOTOXnyJF27dr2slCIriJQC2SwXyhpGVVddCvfOZfKu21gZnUVe2gHmeKxk4rxfsA6SNhLzXQy9tsSSfGwBfXXC7EkguB7c0AbdiRMnsn79etseKyUCk/MjFPyFoSCPgqxzaOzt0WjslcZdO7+RqDy6Wc+rAoaofxMy6igjXn+B8YPvoGtYI9vARDlyuY32+54nddtDeEl7cjeNxH/RnZw+8DQta1EcJxDUdW7o7eTu7l5x5FIcpdjSosv8XLL3QVGa9bwq4NB3PtsX9SJp1QwGtvbFp9VgXt6RJMdFChrvRlj7AQuzJ4HgelGLbimbsJTn52LOlzImrXxSFfGg46RFbP01mZyMc3w12cyKaQs5ZGtIUZU4UAqzJ4HgelF7xEWJWkzodRkloiJ/tSqNvFJVLCSvHkyTfgs4nGZA4+lPoK8Tdj6+eJXzboXZk0BwfahFkYtG0gUTaqfmODS6FY1XZ+w8bkHt3gGVa3vMKhfbeVdDRcCE5Szv8gMTwz1wcGnG0A3BLNr4LO3KebfC7EkguD7UHrMok5T6pH+J2XOAJDABtp0CgaCuUnsiFztXaDQUk8pVyopuiN4JBILrSC1KiyTsvbF39EBV2uIqEAjqKLVLXMqQk5NDQkKCbUsgENQ1aq24bNq0if/7v/+zbQkEgrpGrRUXud3FZBKPgwWCukqtFZdKyT9F/pk55J18hoLTz6E/9xJFMXMwxb6JJf4d20nVxUzOyUheGd2N5t6OaJyb0GHYC2yI1tmO/wMs+SQn51avu46EOfp1QlTj2Fl0+bpAUBeom+KiUuPs3RqNWzMpwrF5vyi+L1KpoWtdzv5n6dXvXbJGfsThpHx0lw6ypPsxnuw1kv9d+Cfdd40cntubIUvPlgw/EAgaAnVTXKQYQK2xx8mrNWZ5HNIVpdoYT/De9OX4LdjGBxO64OeswcE9hAGzN7C49wmWf3b6HwiDmezUNAzi6bqggVFnxUUpUpRiHeQor8vDB2Rhqb64mKO3sjm2F+PvC7r8B6JqwqRtlzjyUgfspO+XdXApE7r646SywzN0IDM3/4VePs98gaU9W/LA7Oe4K9QdO7UboXfP48dMExeXDWL4x0mcXdgd95HrOVGen0xF160ISya/LJlIj2aeOLn4Ej74eb44bzWUMP+1iG6hY3hqQgTebiE8ufsapHUCQQ2oteJSUFDA+fPn2blzZ0m5HCmWKPZ+kUdQK0UWmeqHCMaLf3LBNYzQRuX0r7HtsiSsZuzgpVie3EWiLodTK/pwZNoAnttvu3klgfn8WwvP7klBl7GPh7Pm89h/omn21PdsmxZI+AuH0G4dj9uVfjKZV7nu3zCTuH4yo97LZHTkaS4lHuS9W6L415i3OG7LCI0x3xHTawuxycdYcHtVh00IBNeWWisuZ86c4bfffmPx4sUl5TLkNhaL0ZoWlREW23DHaiHPRa2utOOehaRtq4jqPpclD3fEx9mN4P6zWTZDw/o1P9tMqBwYMOtVBjd3xdG7Cw+NDCc+JlE5ciUO/SYwLtwLd2930q963SuwpLBt3W6CHl/IzL5BeHiHMuyNuQxLiiTyqE1dHPoxYVw4Xu7eeJTMsC8Q3FhqrbjceuutjBo1qvzIpTgFUiwa5MhF3meNYDBLG/mnrOdVEbsWbQnL/5OYzL8LU0H0LrYeukhyUiouLZvjXaJBdgS0CKYwJZV8ZVuNbyN3ZU1G4+igpGzlUdZPJuOq170CUyqJqXp+nR2BRhJEuTezymUoq1MTiIu3eUpovGn0zyeuFAj+EXW4zcUaucgiUxK5KEekfxlblfWqog4bxv2tfmbd5/GXt9hYMvj61bE89r8/8QzwQxcbR1aJ/phIjr2Io19jXG17yhjFVErpaWoaVeW6ZVH70sTHiTs/SMCkCKqtmHVsHutsPaeKr0MguJ7UTXFRopbiNhd527rbuiEvq/lsx64D/35/AnEvDOdfaw6TkG+gIDOab+bezxP7evDWq/1pNWISvQ+8yTPrTpJZkE/CvreY+aGeseN72Sw0K0KFo6M9eRnpaA3S67XttaIisLrXVTdl+Lje/L54FisOJpFfmMmZz6bR3qcfS/+q5vsWCK4jdTRykdMfI7rcRFvEYvv0lg/J25ffwVXC+67/8vNX4yn834N08HbEtemdvHKiB/898CVTWqhRB01h447HMS0ZSICrJxHTo+jy4V6WDSpNhcpHQ4eho/D9chTBQz4i6YpMqfrXVdNi6jo2T1Ozckw43h7B9F+Qyqh163kiVHjQCGoPtcfP5QpWrFihnPvxxx/b9pRBdwYyd2PAC5PKG7XcIKuWBEBth0oq8tLiebsYXS0Q3ETqZuTi0g5cI9C4tcIpcBiO/vdg32QIdr6DUDfqD153CGERCG4ydTQtkvC+E7NjK9uGQCCobdRdcUGFxtlfRCgCQS2lDovL5Xz00Uf89NNPti2BQHCzqTficuzYMaKjo21bFVOo10ulEJPZZOvde0PaswWCBke9EZeqkKUrYM/PP7Lx66/4aucOvvn+O6IO/cLv584QlxRHVm6mEBuB4BrRYMRF7s2qN8MtEZ3p0qU7PoEt0WtciE7O4ocTZ9m080c+372PYwe+s9WoAvk7mBqowW3IxySW7b9i/ovFt7owYbutO/61oqzplHEXj7oH82zxNJLFmI7zaisXxn9T7sik6mO+wLIe1+G9COo9DUZc9EazIjD5dva4+vjSJCiYZm07ENyhC+6tI8hrGoq3VKJ2b7HVuDq5uzew3bsDLQ6sY1PsFb3jrjnCdEpQt2gQ4mKWROVibh7ZhQZy9UZis7Qk5uSRIaVJuYV6KaKx4OLkjJ+TPTptpq3WVbBks3PDDuz6TGNsm2Osi/wnhlJVQZhOCeoWDUJcYrPzSC8sIllbQGaBJCZGE6n5hSTm6siSxCW/yEi4txv5unyM+kJbrcqxZHzLhl0aBg4fx/33tuVs5CccvSwTMZO6ewEjwtxxbhRGv+mrOV1gPWLJOsjSCV3xd1Jh5xnKwJmb+Ut2hzL/wVudvJm2pzgFMXNuwS00emz3FaZTkVRtWn4Tidtf5u4If9yc3GjaeTQL9qdfPjhTwnxhKT1DJ/PuvGGEuGpwDurJ9LXR2F6uhJmUPe8wOqIRDhpPwu5+kx/lkZaKSVYok9+dx7AQVzTOQfScvpbo0oqCBky9EZdDhw6xYMEC+vfvX1JkCiThOJ2Rq0QtGQWFpOTpSJUilgKjkXxDkRS96MnSFRLSyIPc3FxMRZV6wNmwcGnbBvZ63s/DA71oO24S3RI/Y11U2btKz94dyTy6I4n06DXcdW4Ww189gN6SwOqxg1lqeZJdiTpyTq2gz5FpDHhuPxV7xqn/Zjp1tRFNCoV7mTt5F7etjCYrL40DczxYOXEev5TTHGOOWcOKmInsSMwmdsMwzj49nDmHin8WevbtyWDq9ni0aXt4JPcdHlt6yipS5hjWrIhh4o5EsmM3MOzs0wyfc6hyJz1Bg6DeiEubNm249957mT17dkmROZiUQboUrWRJ4pImRSty5JIuLS/lFZAniYtBEhlnlQU7lYrCQmmfJDBXxZzE1g0/EvjgJPo4ST/EFg8wZUAun6/9npLaajfuW/Auo0LdcfXrzQsLJmHY8BlHLm5jVVR35i55mI4+zrgF92f2shlo1q/h52q1waqKTfLKRz6odsJFE8futZF8cygBt2GriLm4lD7lDbd2GcH8JQ/QxssN/74vsnCKgU8ij2CNoRwVI6whzaxGWOPGtCchJsGWBrowYv4SHmjjhZt/X15cOAXDJ5EcEe2/DZ56Iy5eXl60b9/+ssglPjef/XEpXNLqSMjRkp6XT2Z+AdlSpKKVxEYuhUVFdPL1wlhkID9PjlyunhaZL37Bhqg8ot/uhoMkSiq1P5O+zpaimbV8k25rFFE1pnmQzV9FQu3fnMDsVC5dSiLVpSXNS92hsAtoQXBhipSq2XaUoeIn4444OxUiBWOXYylAV+iMu6v0q3Xoy/zti+iVtIoZA1vj69OKwS/vIKmcxiG1fxtCSsIhNQHNA8lJTsfqbaemsY+HsiZjp9FgNtnsI6T33qa0IuoA6X3mJJMupkBp8NTrNpfP/0wip8hEmiQmydlaSWTySdfmkZUvpSM6HXnSneki3ePNPFzRF+jIzc5Aoy7CZKzszjBxfssGjnZYQLSxjFlT3rc86vw9a79IsqYLlgwSk0rvfGPSeRJ8m9K0SQB+uljiSt2hMCXHctHRj8aSINhJ399QVHzMTHZ62t/aSBTUzQkPy+PsH+mXOUxYsv7gTFZr2raw/mo9Ok5i0dZfSc7J4NxXkzGvmMbCKx9fS5jT40kuiZzMJMYm4hvsX+opU9EwC3M68aUVMSfGkugbjL+w12zw1GtxGR7alKmdw7ivXUtu8fPBy90NtYMjhRYVuiKzVIro19yPAilqSbt0ifysVDw9nMnLq6S51PQHmzb+RsTo+wgra5/ieifjRnoRtW4j52U1MGv5cv589qcUUJC0n/974RO8H51Il+ARTOp9gDefWcfJzALyE/bx1swP0Y8dTy+nxrRsbmHfpm9JkNuIjq/g7Q3JNvG4wnRKHcyoyX049uaTLD+SQoHJRMGlE6x/9v843HsK9zVTY0lezeAm/VhwOA2DxhP/QF+c7Hzw9Srn1567hbmzd3IxT0dy1Nu8tNaVSRO7cHWHmFy2zJ3Nzot56JKjePultbhOkt6nsJZp8NRrcWnl6UL7Ru70DvTh/rBAHglpwsSWTRge7EOPoMbc1SoITwd7jGYzmVkZODm5EnLrfTg4lqYzV2I8tZGNZzox5r7QK248Z/o8dD8BR9fz6Wkp77BrzuihKv6veyPcwx7hp56r+XZOJ+zVQUzZuIPHTUsYGOCKZ8R0orp8yN5lg3DHk3vf/Zh7Yp4jwtOLLrNiGPnEYFv0cLnp1EWzmqApm/j+ZW82jmuPt70Gr/AxrHZ+nt1bphAs/WZVARNYvrwLP0wMx8PBhWZDNxC8aCPPtlNjPr+YLqpOLIqxxUUOPemueZfevh6EPbqfrit3MLdzVcIPB3p21/Bub188wh5lf9eV7Jjb+SrufIKGQN00iyqHadOm0a1bN2VZGQaDQZmDOiMzkzxdAQajSek7cvrU7/TodAuhrUKws2tYH7vKo+i2h3lNG8k9GtvOqqA8im7L4de0RFaroqAhUK8jl/JwcHDA2dmZoKZNaRPainZhrQgN9OOhkSNo0zqswQmLQHC9aHDiUhbZC0ajkdIJLy9FdAQCwbWjQYuLwIq6xdMcKqhmSiSjbsHThwpESiQolwYnLnJ7i+zlIhAIri8NSlxyCgrYsX83kV9s4Zs93/H9/j0cPXmM2Pg4srSZGEzV6iIrEAgqoUGJS77RQtuw9oSGtsPi4ElcWi5Rx6PZujeKdZu/ZtNXX3L+zxO2syvGsH0yTQKn8/0VWlT08yxC3EazseJBQjcH4ckiuAk0GHHRFZmwU6uw9/QmJKw1HTp1omu/AUTcPhDvjl1Jb9wcY+Mwvt283FZDIBD8ExqMuMjWCnLP1tS8Av7MyCYpW0uaNk9KlfQYLSo0bp5Kp7u8nHRbDYFA8E9oEOKSIQlIgiQqsp+L3iR3+zcqgxov5cuCY1D8XFq4O2MqMmA0XKucxkLWwaVM6OqPk8oOz9CBzNz8l2JFIHda6xX+GIvnjyLcU4Njk+78++vT/LL4Ptq42+Hg240ntyXbxihl8suSifRo5omTiy/hg5/ni/PltA1d1VtFeLIIbiz1RlzknrcxMTEcOHCgpBQTnZGrONBlStFLoiQqWn0RBklk0nWFUtGTV1REO18vchQ/l6oN5zWnruAuR5XSV6a4OPR5n1jbgyhLwmrGDl6K5cldJOpyOLWiD0emDeC5/VbxMp1bxfqsJ9mbouXsPC9WjuzFyznPsO+SlugFjVk/8wN+l15j4vrJjHovk9GRp7mUeJD3boniX2Pe4nh5L7NSbxXhySK4sdQbcXFxceGbb75h1qxZJUUmLiePOK2OHEl8MiUxydYbSM7TKcZRepthVJ4U2bg42JGfn0ehrhzfg3JQ+z3GLn2ZUdFSMfw0k5ZKB18LSdtWEdV9Lkse7oiPsxvB/WezbIaG9Wt+Rok7HPrx7xf6E+jsTPMBdxFufwePP3s7Ac4utBw4gNapCaSaU9i2bjdBjy9kZt8gPLxDGfbGXIYlRRJ5tDx1qcxbRXiyCG4s9UZcPvzwQ06dOnVZ5CIbcu+NSyW3UBIWSUAy8iVxkZZaSWDktpbcwiKMJhPBLo7Sp7ckDvKcRrprkRaZyUhKxaVlc0ptW+wIaBFMYUoqinypm9DEy3ZQo8Fe7Y6Hi3UTeTJ9WbBMqSSm6vl1dgSa4gjJZSirJeGJiy/nzq/UW0V4sghuLPW6zeVIUjrRaVmkSKnQxcwc0qWIJV2KYrIkkZGNonQGSUykiKazXyOKpPXc3CwsZr0Shfwz1DQK8EMXG0epbYuJ5NiLOPo1xlXZVqG+2k9f7UsTHyfu/ECKMGzRkVLMOjaPLWfk9tW8VSRxKhfhySK4DtRrcfkuPgO9nQPZRSYlJUrLy1eMorILdGh1BVLR4+fkgJuDhqLCAvJzsnDQmK9iFlUVVASOmETvA2/yzLqTUtSUT8K+t5j5oZ6x43tV3Y5A3ZTh43rz++JZrDiYRH5hJmc+m0Z7n34s/au8XsY19VYRniyCa0+9FpfXe4Sz+PYOzOnTgZGhQXQMDsTL0xOzxpEC5a1bGNgygAIpeklMSqQgNwVvL1eys7OsF/gHqIOmsHHH45iWDCTA1ZOI6VF0+XAvywaVph9XR02LqevYPE3NyjHheHsE039BKqPWreeJULu/e7LU2FtFeLIIrj31xs/laugKCsjOzCZXilguSSXdosHNyRFfR40iLjFnfic1/gJtg7y5+97xdc96oabeKsKTRXCdqNeRS1lcnJ0JbBpAeFgIfTu2o5e/Jy3tirAv0OJYpEclpULjR49h2H0PC08XgeAa0GDEpSzyUxd/f3/CwsLo0K4tbVoEMWH0/QQGBtrOEAgE/5QGKS5X4u7mrghOnaam3irCk0VwnRDiIhAIrgtCXAQCwXWhboqL2SD9z1CKRS5FmVLJAqNcsm0nCQSCm0ndFJeCPymM/RBd9JvS6gIMMe9gjFuEKX4ZluQPbScJBIKbSd0UFxU4e7XC0bcTFrOppGCRl2K0nUBQG6izbS4q6ZXbO/lgNpuxWEqLpC62MwQCwc2kjoqL3KlYKpYim6jI67aldZxvNbGQdfg/PNKrOW4aDZ5hg3llewJyDGTJOsjSCV3xd1Jh5xnKwJmb+UtxfPqLRd1CGfPUBCK83Qh5cje6qho7CQQNgForLr/99htbt25l6NChJeUypBQIi1HSFHmUsE1YbFFMdbGkb2bKkHfQPrqVC9o8/lzbkx8mTmF9Ujyrxw5mqeVJdiXqyDm1gj5HpjHguf0oxgzGGL6L6cWW2GSOLehDVnWMnQSCek6tFZeQkBA6dOigjEcqLiXIAiK3rZiLlLTIrNgQ2IRFEhtMebYTq4Z276d8F/Y8703pjK+zE016vc6BjJ08YvmGVVHdmbvkYTr6OOMW3J/Zy2agWb+Gn62OT/SbMI5wL3e83TOraewkENRvaq24uLu706pVqwoiFzn1kdtXJIFR0qHilEg+Iv27FKmsVw0zWSkpWIKC8Lvip2HOSCLVpSXNSx2fsAtoQXBhCqmK45MG70Zuyn6qa+wkENRz6mabixyhKMIipUWyplh1RVraVgwp1mWVUOPt54cqKYm0KzIqdaMA/HSxxJU6PmFKjuWiox+NFccnSUCUvRLVNXYSCOo5dVNcZDUxm9Dnp9kiFtuNrBySvpZqQZVw7z+eIX+8zyuRp8g2GMj6/SNG+HdgXuZQJvU+wJvPrONkZgH5Cft4a+aH6MeOp9eVZifVNnYSCOo3dVNcVPaSgJiw2Hng0OhW7L26oPHshNq9Iyq3CHBtZxOdqqFqPIaV25+GJQPxd3Si2b2baLnsS17s2JwpG3fwuGkJAwNc8YyYTlSXD9m7bBB/t3yq3NhJIGho1E2zKDklyvwesyQuKs9edX9Es0BQD6mjkYsGGg3E7NDCtkMgENQ26mibi4SUGmlcmoqoRSCopdRdcbmCzMxM9HoxR6BAUFuoN+Ly8ssv89lnn9m2KsZkMmGSBzkKBILrSr0RF7mnrjxfdGXkFBSwY/9uIr/Ywjd7vuP7/Xs4evIYsfFxZGkzMZjEOCCB4FpRb8SlKuQbLbQNa09oaDssDp7EpeUSdTyarXujWLf5azZ99SXn/zxhO1sgEPwTGoy46IpM2KlV2Ht6ExLWmg6dOtG13wAibh+Id8eupDdujrFxGN9uXm6rUQXydzA1UIPbkI9JvKJ37/XGfGEZPVwmsF2MLBDUUhqMuGQV6tEajKTmFfBnRjZJ2VrStHnKhPRGiwqNmyetPF3Iy0m31bg6ubs3sN27Ay0OrGNT7A1WF4GgltMgxCVDEpAESVSStQXoTWYpijESn5vPpXxZcAzkS9st3J0xFRkwGhQzhatjyWbnhh3Y9ZnG2DbHWBd5GtFMLBCUUm/EpbCwkLi4OE6cOFFSionOyCVXbyRTil4SJVHR6oswSCKTriuUip68oiLa+XqRk5srCUzV7BEsGd+yYZeGgcPHcf+9bTkb+QlHi9uDlSlSQ5n87jyGhbiicQ6i5/S1RBdc5dgVmC8spWfoZN6dN4wQVw3OQT2ZvjaaklPNKex5ZzQRjRzQeIZx95s/Io+xvGo9geAGUG/E5ejRo8pQgUceeaSkyMTl5BGn1ZEjRSiZkphk6w0k5+mkaKYQvdFIvqGIPCmycXGwIz8/j0Kd4qVwFSxc2raBvZ738/BAL9qOm0S3xM9YF1Xm9jXHsGZFDBN3JJIdu4FhZ59m+JxDKD1xKjt2BeaYNayImciOxGxiNwzj7NPDmXPIdqZ+H3syprI9Xkrx9jxC7juPsfSUNT2rtJ5AcAOoN+LSp08f/u///u+yyEW2Ptgbl0puoSQskoBk5EviIi21ksDIbS25hUUYTSaCXRylu9GCQa+XxKUKaZE5ia0bfiTwwUn0cZJ+iC0eYMqAXD5f+z25tlPAhRHzl/BAGy/c/Pvy4sIpGD6J5IjSAFvZsStwGcH8JQ/QxssN/74vsnCKgU8ijygWnDgOYNarQ2jm6oh3l3GMaZ9ATIItOausnkBwA6jXbS5HktKJTssiRUqFLmbmkC5FLOlSFJMliYxWEhydQRITKaLp7NeIImk9NzcLi1l/1RHV5otfsCEqj+i3u+Egm0Kp/Zn0dbYUzazlm3RbXWlfm5DSsdPqgOYE5iSTLmddlR27ArV/G0pPVRPQPJCc5HSUU9WN8fFQDkjYodGYMRmt37/SegLBDaBei8t38Rno7RzILjIpKVFaXr4kLDopetGh1RVIRY+fkwNuDhqKCgvIz8nCQblBK7sFTZzfsoGjHRYQLd3Iio+MXPK+5VHn71n7RZLskScpUDrxyaWd8syJsST6BuMv+8BUduwKzOnxlJ5qJjE2Ed9gf4pPrWho1dXqCQTXm3otLq/3CGfx7R2Y06cDI0OD6BgciJenJ2aNIwXKW7cwsGUABVL0kpiUSEFuCt5ermRnZ1kvUB6mP9i08TciRt9HWFmbFtc7GTfSi6h1GzmvqEsuW+bOZufFPHTJUbz90lpcJ02ki1KnsmNXkLuFubN3clGKupKj3ualta5MmthFilOuQk3rCQTXiHotLjJyxzlfKTrp06wJY5p6MrW5N5OaeTEyxJ/R7VoqUUeRyUSuVou7VyAdBz6NdyNfW+2/Yzy1kY1nOjHmvtArblRn+jx0PwFH1/Ppabndw4Ge3TW829sXj7BH2d91JTvmdrZFDhUdM3N+cRdUnRYRU9xtxqEn3TXv0tvXg7BH99N15Q7mdq5C/FHTegLBtUK6uW4Ihw8fttx22222rauzfPlyy9SpU21bV0c+d8WKFbatyjGbzZbk5GTLH3/8YTl5+ozlyO9nLOs2bbYkJibazviHmGItS7o5WcZ9W2TbUYbKjl2BKXaJpZvTOEsVTr2MmtYTCK4l9T5yKQ/ZA8bf35+wsDA6tGtLmxZBTBh9P4GBgbYzBALBP6VBisuVuLu5C9MpgeAaI8TleqBuwdOHCoi8R2PbUYbKjl2BusXTHCqIpAqnXkZN6wkE15IGJy6Fckc5faFiGGWdxP6G+JMLBA2OBiUuWboC9vz8Ixu//oqvdu7gm++/I+rQL/x+7gxxSXFk5WYKsREIrhENRlzkoQB6M9wS0ZkuXbrjE9gSvcaF6OQsfjhxlk07f+Tz3fs4duA7W42K0W8Zi7PcM1fpnavGzsEd/3YDeXz5UWXgoIwlcw1DnWznSEVt54hnUBfGvL2fNOUcCwkf9ETV+yOSq6BnlvxkknNvoPBZ8klOzlXmlzPHLqaTagzbbsjYATMXlvXAZcJ2MVShjtNgxEVvNCsCk29nj6uPL02CgmnWtgPBHbrg3jqCvKaheEslavcWW43KsWv+FPsNFixSemXIucC+d3oQPXcw9y87W3pTaNrxytEiJRoy6bM49/l4tIsfZObW7OpNCmk8zNzeQ1h69kaZOhg5PLc3Q5aeFTYSghrTIMTFLN3cF3PzyC40KNYLsVlaEnPyyJDSpNxCvRTRWHBxcsbPyR6dNtNWq6qosHP2IXz4m3z6Ti9+e2chO/Nsh8qgkqIk/26P8MBtWk6dvGgdIlBVzNmkphmqJ0j/CDPZqWlI2qmgbjmLE5bNDBcNxIJq0CDEJTY7j/TCIsUsSh4drTeaSM0vJDFXpzjUyWZR4d5u5OvyMeoLbbWqi5qAEaPplbuXXb+WMzbJrOfSkbVsPtWaEUPb/K0bvuLB0vIBZj93F6HudqjdQrl73o9kmi6ybNBwPk46y8Lu7oyM1Mo5F78smUiPZp44ufgSPvh5vjgvDyQy89eiboSOeYoJEd64hTzJbp2B85+/yPCOgcoYKufGbRn66k5SFHWzkHX4PzzSqzluGg2eYYN5ZftFzi8bxPCPkzi7sDvuIyPJKZsWWbI4uHQCXf2dUNl5EjpwJpv/kq0cpHRmaU9aPjCb5+4Kxd1OjVvo3cz7sRyxroKnjTllD++MjqCR9Jo9w+7mzR+zpFdr/R6hk99l3rAQXDXOBPWcztryzHAEN516Iy6//vor77//PqNHjy4pMgWScJzOyFWiFtnDJSVPR6oUsRTYvFwydHqydIWENPIgVzGLqrnnicqtKU090ohPtF3DeIYFt9lb213snPDr8SInb5vB+PaO1uNXYL7wOd9anmVPio6MfQ+TNf8x/hMdxFPfb2NaYDgvHNKydbwriesnM+q9TEZHnuZS4kHeuyWKf415i+OKphmJ+S6GXltiST62gD6pHzHhyVMM/vSMJKSFpP74FOrlT7DshAlL+mamDHkH7aNbuaDN48+1Pflh4jT2j9nFtmmBhL9wCO3W8WXmxbaQsHosg5daeHJXIrqcU6zoc4RpA55jv+JUId38n3+L5dk9pOgy2PdwFvMf+49S829cxdNGv28PGVO3E69NY88jubzz2FKsVjVmYtasIGbiDhKzY9kw7CxPD5+DsKqpfdQbcQkODqZHjx48+OCDJUXmYFIG6VK0kiWJS5oUrciRS7q0vJRXQJ4kLgZJZJxVFuwkASgslPZJAlNzjBiNUpqkscUlZdpcLKYC0n7/lHvPz+TuWbvK+L6UwUH2ZxlMc8Wf5SFGhscTc6XztyWFbet2E/T4Qmb2DcLDO5Rhb8xlWFIkkdL3knHoN4Fx4V64e3vg1PIpfkn+hseC84k98TP7DsahU2eQlmlBu/dTvgt7nvemdMbX2YkmvV7nQMZOHg2ooEOhJYltq6LoPncJD3f0wdktmP6zlzFDs541P1uHYDsMmMWrg5vj6uhNl4dGEh4fo+z/O5V72jjK1xnSzHqdcWNonxBDqVXNfJY80AYvN3/6vriQKYZPiCzXDEdwM6k34tK4cWN69ux5WeQi++Tuj0vhklZHQo6W9Lx8MvMLyJYiFdnPRS6FRUV08vXCWGQgP0+OXGqaFkn3XuZFLuYH0CK4vM5zTvi2H828Wf1I/XILB0sdF0pR+9KoJEzQ4OggJQJXNs6YUklM1fPr7Ag0tidRKpehrE5NIC7eeoNpvBvhpqxJ6E7y4YNtaRzQmREz3mbT8WzU9tJ1LWayUlKwBAXhV9W/AnMGSakutGzuTYn82MnvV4oIU60OfmrfRqWRjsYRB+n7lMtVPG3UjX0otarRoDGbsFrVqPFvE1L6PdQBNA/MIbk8MxzBTaVet7l8/mcSOUUm0iQxSc7WSiKTT7oU/sueLjk6HXlSmuQi3SXNPFzRF+jIzc5Aoy66ip9LRZhJ/nYrR3wHMeQWe9u+K1GhVqlR2TtgX0FwIGlF5UgC1MTHiTs/SFCefilRkVzMOjaPdVZOKb2GheTImTx77kF+zLjE2YM7+GTxw3SQIjX5V+/t54cqKYm0Cu7/v6FuRICfjtg4uf3DhimZ2IuO+DV2te2QxM62VilX9bSp6Dpm0uOTKbWqSSQ20Zfg8sxwBDeVei0uw0ObMrVzGPe1a8ktfj54ubuhdnCk0KJCVyTPAlBEv+Z+FEhRS9qlS+RnpeLp4UxentZ2haphLkwn+pt5TJrzG31fe45+1nv8Ckxoz3/LvKU/0Hj4SLpWpD/loXLE0T6PjHQtBnMgw8f15vfFs1hxMIn8wkzOfDaN9j79WPrX3x8cW+TQx5BLhtZAkfYCu954gVWJevR6M+79xzPkj/d5JfIU2QYDWb9/xAj/Drx5yoyjoz15GenKdCwlQqIKZMSk3hx48xnWncykID+BfW/N5EP9WMb3qu7NXQ1PmyvI3TKX2TsvkqdLJurtl1jrOomJVakouKHUa3GR5yFqL+UZvQN9uD8skEdCmjCxZROGB/vQI6gxd7UKwtPBHqN0A2ZmZeDk5ErIrffh4FiuOlyGKW4ZdzhIn65qNQ5eodw1+zDt3trBp4+GlD4JKtOgq7ZzIqDHsxy/9T0+f3tAadpSFTQdGDrKly9HBTPkowSaTV3H5mlqVo4Jx9sjmP4LUhm1bj1PhF55g6kInPA+CyO+Z0ywC55t7mOV07MseMiN6DNxWBqPYeX2p2HJQPwdnWh27yZaLvuSFyMc6TB0FL5fjiJ4yEdcLIls1ARN2ciOx01SlQBcPSOYHtWFD/cuY1BphlM+5vMs7qKi06IYKfaQqczvpnIcenZH825vfD3CeHR/V1bumIuwqql9qKSQuuSD6Xpy5MgRZsyYoSyrwooVK5RzZUf/qjBt2jS6deumLCtDnk9anow+IzNT+uQrwGA0Kf05Tp/6nR6dbiG0lSQOduJT8LqiPIpuy+HXtFUawFmK9VF028OvoY28B9HtpnZTryOX8nBwcMDZ2Zmgpk1pE9qKdmGtCA3046GRI2jTOkwIi0BwjWhw4lIWOV3RaDR4eXkpoiMQCK4dDVpcBDeJanjaXI6aFk8fokCkRHWCBicucnuL7OUiEAiuLw1KXHIKCtixfzeRX2zhmz3f8f3+PRw9eYzY+DiytJkYTOX1bBMIBDWhQYlLvtFC27D2hIa2w+LgSVxaLlHHo9m6N4p1m79m01dfcv7P0gnsBQJBzWkw4qIrMilzGNl7ehMS1poOnTrRtd8AIm4fiHfHrqQ3bo6xcRjfbl5uq1Ex+i/H4S5dS+l6Lxe1HfaujWnd/0k2/PHPR9Bdf2MoYcgkuP40GHGRrRXk3qapeQX8mZFNUraWNG2eMiG90aJC4+apdLrLy0m31agcddMZ7NUXd70vQhuzjRmuX/DYI8v4R55ON9wYSiC4PjQIccmQBCRBEhXZz0Vvkrv9G5VBjZfyZcExKH4uLdydMRUZMBoU74BqosbJvwdPvDqBgBM72JNc1cE65XDDjaEEgutDvREXo9FISkoK586dKynFRGfkKg50mVL0kiiJilZfhEESmXRdoVT05BUV0c7XixzFz+UfjK41FlEkD7hTRtxZyDq4lAld/XFS2eEZOpCZm/9S/ErMf7xFJ+9p7CnOScznWHBLIx7bff4fGkNZL6cgDJkEN5l6Iy7yNCHykIERI0aUFJm4nDzitDpypAglUxKTbL2B5DydYhyltxlG5UmRjYuDHfn5eRTqrNYB1cNEfsKPLHozkozbhjHQX40lYTVjBy/F8uQuEnU5nFrRhyPTBvCc1VWpfNTN/pEx1O0uylVKEYZMgptIvRGXtWvXEh8ff1nkIlsS7I1LJbdQEhZJQDLyJXGRllpJYOS2ltzCIowmE8EujtL9ZMEgz2mkq1paZE78L/0dixt17fEIG82nLv9iwyf/prWdhaRtq4jqPpclD3fEx9mN4P6zWTZDw/o1P5faBVyNahpD/b2PsTBkEtw86nWby5GkdKLTskiRUqGLmTmkSxFLuhTFZEkiIxtF6QySmEgRTWe/RhRJ67m5Ulpg1iuNtFejpEHXlMu5jdO5JaADY5+byT3N5L6jZjKSUnFp2RzvElMSOwJaBFOYksrfYyPpOra1y6iuMdSVCEMmwU2kXovLd/EZ6O0cyC4yKSlRWl6+YhSVXaBDqyuQih4/JwfFuLqosID8nCwcNObqmUWp3Wk99v/xxRx3Phg5grePypGPmkYBfuhi40rmMZJTp+TYizj6NcZVbYe6yEBR8TFzNunlOTZVyxiqHIQhk+AmUq/F5fUe4Sy+vQNz+nRgZGgQHYMD8fL0xKxxpEB56xYGtgygQIpeEpMSKchNwdvLlezsLOsFqowdLSb9l/cHxDDv0Tf4OV9F4IhJ9D7wJs+sOymlZPkk7HuLmR/qGTu+F06NW9Lcso9N3yZIkVMGx1e8zYbimdH+gTHU3xGGTIKbR70WFxm545yvFJ30adaEMU09mdrcm0nNvBgZ4s/odi2VSKDIZCJXq8XdK5COA5/Gu5GvrXY1UAcydsn7jMhcxvTXf0IdNIWNOx7HtGQgAa6eREyPosuHe1kmuyp53su7H99DzHMReHp1YVbMSJ4YbIsKamwMJSEMmQS1iHpjFlUd5LecmpqKVhKUwiKjMs1rdPRpBvTuRWBgoO2sOo4wZBLcZOp95FIecsOov78/YWFhdGjXljYtgpgw+v76IywCQS2gQYrLlbi7uSuCIxAIrh1CXOorwpBJcJMR4iIQCK4LdVNczAbpf4ZSLHIpypRKFhjlkm07SSAQ3EzqprgU/Elh7Ifoot+UVhdgiHkHY9wiTPHLsCR/aDupGuR8wr3OKuwaT2DrlfOh5X7JeF877DvM5UQ1e7+bz71FZ9/ptq2KMBP9egiqcTtt2wJB/aBuiosKnL1a4ejbCYvZVFKwyMsajn+xa0ao134+33O5uuTs+pw/G7cU7Q8CQTWps20uKumV2zv5KKOhLZbSIqmL7YxqovJm4D1t2bdlNyXyYslm5xd/0uPu9kJcBIJqUkfFRe73JxVLkU1U5HXbsvwhgFVATZO77ib0h8/ZnWvdY8n+js/P9ODuzmUmdrZkcXDpBLr6O6Gy8yR04Ew2/2XzIjClsvuNEbT1ccalaV+eijxHofWIVK8iXxaBoH5Sa8Xl9OnTbN++nYkTJ5aUy5BSICxGSVPkgXw2YbFFMTXFLmgwdzfbI6VGsrpYyNyxhZPdh9KtpNu7hYTVYxm81MKTuxLR5ZxiRZ8jTBvwHPt1ZunYeMZsaspbhy6RdvxdWh36xmZ5ab6KL4tAUP+oteISEBBAs2bNuOuuu0pKCbKAyG0r5iIlLTJLwmIVGHm/JDKmPNuJ1cSuFUOG+LN7yx5yzRns2PIr3Yb2omRaeksS21ZF0X3uEh7u6IOzWzD9Zy9jhmY9a36KZ/unB+jx0nxGhrrj2qQHT73zL8Lkn3AVfFkEgvpGrRWXRo0aERERUUHkIqc+cvuKJDBKOlScEslHpH+XIpX16qOh3d2D8d69he/Pf8vmI10Zerur7ZiEJDhJqS60bO5dalVgF0CL4EJSUuJJSHQkKLDEIQV1YAjN5fGFVfBlEQjqG3WzzUWOUBRhkdIiWVOsuiItbSuGFOuyBmg63cNdrrv46NlVHOoylP6eZYYFqBsR4KcjNk72mrVhSib2oiN+TYJoGlhI3MXM0pdzKQHFq7sKviwCQX2jboqLfPuaTejz02wRi+1mVQ5JX4vv7prg0I2hg+zZu+0IHe8ZiE/ZIUeqQEZM6s2BN59h3clMCvIT2PfWTD7Uj2V87+bcO3UQv85/jg3RORRkHmf5qx9yRm5zUTf9h74sAkHdo26Ki8peEhATFjsPHBrdir1XFzSenVC7d0TlFgGu7WyiUxOc6CWJSiPH2xg62P8KpzY1QVM2suNxE0sGBuDqGcH0qC58uHcZg9xV+I9bw7YZet653R/vNlM53H0svZQHTWpaVMeXRSCoB9RNPxc5Jcr8HrMkLirPXmJEs0BQC6mjkYsGGg3E7NDCtkMgENQ26mibi4SUGmlcmoqoRSCopdRdcbmCgoICZdZFgUBQO6g34jJr1iw+++wz21bFmEwmTPIgR4FAcF2pN+IiRy1y9FIZOdLxHft3E/nFFr7Z8x3f79/D0ZPHiI2PI0ubicEkxvoIBNeKeiMuVSHfaKFtWHtCQ9thcfAkLi2XqOPRbN0bxbrNX7Ppqy85/+cJ29kCgeCf0GDERVdkUuYwsvf0JiSsNR06daJrvwFE3D4Q745dSW/cHGPjML7dvNxWo2L0X47DXbqW0o1fLmo77F0b07r/k2z448bN1p7zyb04q+xoPGFrqU2Ejdwvx+NrZ0+HudUVSzPn3uqM7/QfbNsVUTOTK/OFZfRwmcB20TxW72kw4pJVqEdrMJKaV8CfGdkkZWtJ0+YpE9IbLSo0bp608nQhLyfdVqNySuaKlnsGm4vQxmxjhusXPPbIMttI6BuDXbNQvPZ/zuUeVzns+vxPGrcULjSCm0eDEJcMSUASJFFJ1hagN5mlKMZIfG4+l/JlwTGQL223cHfGVGTAaJDneq4uapz8e/DEqxMIOLGDPcqAohuDynsg97Tdx5bdpepiyd7JF3/24O72QlwEN496Iy6y9UJGRgYXL14sKcVEZ+SSqzeSKUUviZKoaPVFGCSRSdcVSkVPXlER7Xy9yMnNlQTmH1ggGIsokid3V7reWMg6uJQJXf1xklIXz9CBzNz8F9akqeJj5gtL6RX+GIvnjyLcU4Njk+78++vT/LL4Ptq42+Hg240ntyXLY8KtqJtw192h/PD5bqweVxayv/ucMz3u5nKPq4MsndAVfycVdp6hDJy5mVKPq928MaItPs4uNO37FJHnSiyusGT+wpKJPWjm6YSLbziDn/+Cq3lcye+hZ+hk3p03jBBXDc5BPZm+NpqS5nZzCnveGU1EIwc0nmHc/eaPyoT9V60nqFPUG3GRnxQtXryYPn36lBSZuJw84rQ6cqQIJVMSk2y9geQ8nRTNFKI3Gsk3FJEnRTYuDnbk5+dRqMtX6lUPE/kJP7LozUgybhvGQH81loTVjB28FMuTu0jU5XBqRR+OTBvAc/t1lR5TrnZuFeuznmRvipaz87xYObIXL+c8w75LWqIXNGb9zA/4vST1siNo8N002yOlRorHVSY7tpyk+9BupXNCWxJYPXYwSy1PsitR+lmcWkGfI9MY8Nx+dGbp2PgxbGr6FocupXH83VYc+uas9I4kzImsnzyK9zJHE3n6EokH3+OWqH8x5q3jkohWjjlmDStiJrIjMZvYDcM4+/Rw5hyyqZl+H3syprI9XkpN9zxC7juPsfSUVS4rrSeoU9Qbcfn000+5dOnSZZGLbG+wNy6V3EJJWCQByciXxEVaaiWBkdtacguLMJpMBLs4Sn/VFgx6vSQuVUuLzIn/pb9jcaOuPR5ho/nU5V9s+OTftLazkLRtFVHd57Lk4Y5SROBGcP/ZLJuhYf2an7hQ4bGfUYICh378+4X+BDo703zAXYTb38Hjz95OgBRZtBw4gNapCaSWGRFm12oIQ/x3s0VSF3PGDrb82o2hvUqtHCxJ21gV1Z25Sx6mo48zbsH9mb1sBpr1a/gpfjufHujBS/NHEuruSpMeT/HOv8KUPwxLyjbW7Q7i8YUz6RvkgXfoMN6YO4ykyEiu6nHlMoL5Sx6gjZcb/n1fZOEUA59EHkFpx3UcwKxXh9DM1RHvLuMY0z6BmASbWlZWT1CnqNdtLkeS0olOyyJFSoUuZuaQLkUs6VIUkyWJjFYSHJ1BEhMpouns14giaT03NwuLWV+lEdUlDbqmXM5tnM4tAR0Y+9xM7mkmt3NIKVpSKi4tm+NdMjrBjoAWwRSmpJBY4bFUlLhJSnWaeNkOajTYq93xcLFuorZDLTci2zYVNO24e7A3u7d8z/lvN3Ok61Au97hKItWlJc1LvyF2AS0ILkwhJT6BRMcgSj2u1ASGNJdekZwuJZKq/5XZEZqSJ2MuQ1eTmhDH1Tyu1P5tCHG3bUjXDGgeSE5yujXiUTfGp+T72Ulv0YzJaH1HldYT1Cnqtbh8F5+B3s6B7CKTkhKl5eVLwqKTohcdWl2BVPT4OTng5qChqLCA/JwsHJQ/9Gr8KUs3fuux/48v5rjzwcgRvH1UjnzUNArwQxcbp7QlWDGRHHsRR78mBFZ4rDFWTVChrtZvRkOne+7CdddHPLvqEF2G9udyj6sA/HSxxJV+Q0zJsVx09KNJUFMCC+Mk8S0+ZuFSgrVNR+3bBB+nO/lAiiqUp2K2YtZt5moeV+b0eJJL2mbMJMYm4hvsX5KqWdul/s7V6gnqDvVaXF7vEc7i2zswp08HRoYG0TE4EC9PT8waRwqUt25hYMsACqToJTEpkYLcFLy9XMnOzrJeoMrY0WLSf3l/QAzzHn2Dn/NVBI6YRO8Db/LMupNSSpZPwr63mPmhnrHje9OiwmO9anwTOXQbyiD7vWw70pF7Bvpc5kOjChzBpN4HePOZdZzMlEQ0YR9vzfwQ/djx9G5+L1MH/cr85zYQnVNA5vHlvPrhGaXNRd10OON6/87iWSs4mJRPYeYZPpvWHp9+S7mqx1XuFubO3slFKVpMjnqbl9a6MmliFyUiqpSa1hPUOuq1uMjIHed8peikT7MmjGnqydTm3kxq5sXIEH9Gt2upfBIXmUzkarW4ewXSceDTeDfytdWuBupAxi55nxGZy5j++k+og6awccfjmJYMJMDVk4jpUXT5cC/LBrlXeqzGOPWSRKURjrcNZbD/FWGBOogpG3fwuGkJAwNc8YyYTlSXD9m7bBDuKn/GrdnGDP073O7vTZuph+k+thdWj6sWTF23mWnqlYwJ98YjuD8LUkexbv0TXO5xZeb84i6oOi0ipvgxlkNPumvepbevB2GP7qfryh3M7VwF6axpPUGto26aRf1D5LecmpqKVhKUwiIjeumGiI4+zYDevQgMDLSdJagpyiPltod5TRvJPdXoalPTeoLaSb2PXMpDbpj09/cnLCyMDu3a0qZFEBNG3y+ERSC4hjRIcbkSdzd3RXAEAsG1Q4iL4JqjbvE0hwqqn9rUtJ6gdiLERSAQXBfqpriYDdL/DKVY5FKUKZUsMMol23aSQCC4mdRNcSn4k8LYD9FFvymtLsAQ8w7GuEWY4pdhSf7QdlIVsaSyapAzrV459vcu5qbfeaO9J6M2nGBxJxVjtolO6AJBVamb4qICZ69WOPp2wmI2lRRlojR5gvrqoGrCvZMGkBK5kWNXdMw1ntjAuqR7eOQeT9segUBQVepsm4tKeuX2Tj6K1YJ1InprkdTFdkZVUeEzbBJDMjfw2ZGyXgIGDn/yCbkjH2GQZ0tmnbCwebhoaRQIqkodFRe5359ULEU2UZHXbcvLh/RVDa8hTBqex8YNB62jkmUKf2H9Z0bGPNIPF3PsZWlR+R4nZmIW3Yr7g19ZBx9KX7960Bm7uz8hU9nWs2daE3r9p9RnRiCoz9RacTl37hzff/89TzzxREm5DCkFkqd1tZhlm0mbsNiimOrjzsBJIzFs/pSfbT5Juv1r2WL/IBN7Olp3FFOhx8lvBA25l2Y/fm9Nr4p+ZffPJlSH9nJUtiMxnmD7nmBG3h2kXEYgqO/UWnHx8vKiUaNGtGvXrqSUIAuI3LZiLlLSIrMkLFaBkfdLImPKs51YdVzueJjRfM4nUbLvmZbda7/Cc+IEul4xrKUyj5NfQ4Yy3HkPe89Kr+nPfUSFTmVqs5/Yf8aE+Y9dfO96L0ND6mwmKhBUi1r7l+7n58ett95aQeQipz5y+4okMEo6VJwSyUekf5cilfVq4dSbCQ84svWT/eRl7WDNt4FMeugWrmxlqdTjhI4MvSeP7/dfJClqH+pB03no9gL2/XSRC7u/o3D4MMKFtggaCHXzT12OUBRhkdIiWVOsuiItbSuGFOuyWjjQY/x4PL7dwOebI/m+1cM82O7vA/0r9zixp+vwQcR+9xVf7rrI7f3a0W3wHfyxcyOffZ3MPcM6COsAQYOhjn6OSiJiNqHPT1NubHlbucmVQ9JXm8ZUF02Xh5jg+xWzXtpNx0cfoFU5P52reZw49bqXOw68wWs/d2NAJ3ucew6h+77XePPUXdx7WxnHbIGgnlM3xUUl3aRynxY7Dxwa3Yq9Vxc0np1Qu3dE5RYBru1solNNNB15aEIwmXndeeT+ZuX/cK7mceJ2O/f2ziM7YgDdZbc2r9sZHGHAcfBIeghbEkEDom76ucgpUeb3mCVxUXn2EiOaBYJaSB2NXDTQaCBmhxa2HQKBoLZRR9tcJKTUSOPSVEQtAkEtpe6KyxUYjUalz4tAIKgd1BtxmTlzJps2bbJtCQSCm029EZfCwkLFcFsgENQO6o24VEr+KfLPzCHv5DMUnH4O/bmXKIqZgyn2TSzx79hOEggE15KGIS4qNc7erdG4NcOieL7Y/F/kqb8s1Z8oVL9lLM62rv8q6dpqO0fcAzsy7KWtxIp5RwUChYYhLlhQa+xx8mpt9X+5otQEu+ZPsd8g9ww2YzZqidsxA4dPHmbSB3/ZzhAIGjYNRlyUIvu/yIKiDBGQxyfJwnINnjCpHGh0yxSeHduYYzt+sO0UCBo29UZcZMHIz88nKyurpFyOlAKZ5YGO1mijZCT1teygrJL798njhwyc//xFhncMVCa5d27clqGv7iRF0TEz6fvf4r4OjXFxaUKXSe/zymBPHtwqWz1YyPxlCRN7NMPTyQXf8ME8/8V5q4GVKZHtL99NhL8bTm5N6Tx6AfvTr4EwCgTXiXojLj/++CMvvfQSISEhJeUyFI9da1+YssJiG+74zzDlkfDTMt7akEXfkf0xx37EhCdPMfjTM2QVFpL641Oolz/BshMmLEnrmHR/JH5vHiA1/Qwfd9vHml2ym5T0EhPXM3nUe2SOjuT0pUQOvncLUf8aw1vHiyjcO5fJu25jZXQWeWkHmOOxkonzfil1zhMIahn1RlzuuOMO/vOf/5QfuRSnQIpFgxy5yPusEYxiLpV/ynpeNTDFLeMOB1uDrlMTbpm4GdcZG1k1uRnqlk/xS/I3PBacT+yJn9l3MA6dOoO0TDOJX63mp75zeHtUKO4uvtz6+Hs801l2jbGQsm0du4MeZ+HMvgR5eBM67A3mDksiMvIoJimS0cTtZm3kNxxKcGPYqhguLu2DGAspqK00oDYXa+Qii0xJ5KIckf5lbFXWq8NlDbpFOjJiD7Jx9iAC5JHRupN8+GBbGgd0ZsSMt9l0PBu1vUXSMTOX4hNxDQ7E1XoZ6TfgT4vmsriYSE1MRf/rbCI0xU+iXBi6OpWEuHjUfeezfVEvklbNYGBrX3xaDeblHUnyuxIIaiUNQ1zkCEX23FXaXORt627rhry8lreoheTImTx77kF+zLjE2YM7+GTxw3RQyd9LRZOgALTxSTYTbwlzKvEJkuhJvwrfJj443fkBCSZZtIqLGd3msTjjQcdJi9j6azI5Gef4arKZFdMWckiuKhDUQhpI5CKnP0Z0uYnKDSsLgHLjyofkbZvGXCuUx9uGXDK0Boq0F9j1xgusStSj10PgiEfoGTWf2V+fR1uQyclVL7PkmFVcmg4fR+/fFzNrxUGS8gvJPPMZ09r70G/pnySsHkyTfgs4nGZA4+lPoK8Tdj6+eDWQ36Cg7tEw/jTVztIdb0LjFoJL0HAcA4bi4DcEje8g1I0GoPLqZxOda4GKwAnvszDie8YEu+DZ5j5WOT3LgofciD4TB0GPsv6zUVx4/jYaN2rPY0c7cM8t9tjb26FuMZV1m6ehXjmGcG8PgvsvIHXUOtY/EUbQhOUs7/IDE8M9cHBpxtANwSza+CzthLgIail10yyqHKZNm0a3bt2UZblk7cWscqx95lKmk7wWMZTc/8Xyfm8x6Zqg/tBwPve878Ts2Mq2cfMw/vhvApo+xLq/tBiNWv749G1WZ/RnYEchLIL6RQMKqlVonP1vetSi6TOb9dMKeK+PH06uwQz6rz3Pfr2Ee9xtJwgE9YQGm7GvXr365lg0qP0Y+PpWTqboMOqziTuwlqd7eMudewWCekWDFZcPPvhAmTL2aphMJkzKCGqBQFAdxLOGSsgpKGDH/t1EfrGFb/Z8x/f793D05DFi4+PI0mZiMInO9wJBRQhxqYR8o4W2Ye0JDW2HxcGTuLRcoo5Hs3VvFOs2f82mr77k/J8nbGdXjGH7ZJoETuf7K7So6OdZhLiNZqPOtqOWYL6wjB4uE9guOugJ/gFCXCpAV2TCTq3C3tObkLDWdOjUia79BhBx+0C8O3YlvXFzjI3D+HbzclsNgUBQFiEuFZBVqEdrMJKaV8CfGdkkZWtJ0+ZJqZIeo0WFxs2TVp4u5OWk22oIBIKyCHEphwxJQBIkUUnWFqA3maUoxkh8bj6X8mXBMZAvbbdwd8ZUZMBouEY5jSWLg0sn0NXfCZWdJ6EDZ7L5L9mKwcyFpb0If2wx80eF46lxpEn3f/P16V9YfF8b3O0c8O32JNuSzdbLZP7Ckok9aObphItvOIOf/4Lz5TQNmS8spWfoZN6dN4wQVw3OQT2ZvjYa2VVGwZzCnndGE9HIAY1nGHe/+SNZcndL8wWW9gxl8rvzGBbiisY5iJ7T1xJdUlEgsNJgxSUhIYFFixbx3HPPlZRiojNyydUbyZSil0RJVLT6IgySyKTrCqWiJ6+oiHa+XuTk5koCUzXTXHPqCu5yLB7tbC0Ofd4nVnkQZSFh9VgGL7Xw5K5EdDmnWNHnCNMGPMd+RbtMnFu1nqwn95KiPcs8r5WM7PUyOc/s45I2mgWN1zPzg9+lb5LI+smjeC9zNJGnL5F48D1uifoXY946Tnmv0hyzhhUxE9mRmE3shmGcfXo4cw5ZvWXQ72NPxlS2x0sR255HyH3nMZaesgqYVJE1K2KYuCOR7NgNDDv7NMPnHMJWUyBQaLDi4uDgQKNGjfD39y8pMnE5ecRpdeRIEUqmJCbZegPJeTopmilEbzSSbygiT4psXBzsyM/Po1BXMr65UtR+j7FLX3a0swXDTzNpKVs0WJLYtiqK7nOX8HBHH5zdguk/exkzNOtZ87M17HDo929e6B+Is3NzBtwVjv0dj/Ps7QE4u7Rk4IDWpCakYknZxrrdQTy+cCZ9gzzwDh3GG3OHkRQZydHy1MVlBPOXPEAbLzf8+77IwikGPok8gtKO6ziAWa8OoZmrI95dxjGmfQIxCcWP5F0YMX8JD7Txws2/Ly8unILhk0iOiAZgQRkarLg0adKERx999LLIxSTd8HvjUsktlIRFEpCMfElcpKVWEhi5rSW3sAijyUSwi6P06S2Jg14vics1SIvMGSSlutCyeZnOdHYBtAguJCXVKl5q6fV62Q5qNPao3T2kW9yK2k6tiJUpNZFU/a/MjtCUREcuQ1dLwhNHfDk3vtq/DSElPYPVBDQPJCc53RrlqBvj46EckLCTvqcZk9E2DE3tT5vSiqgDmhOYk0y6mPlAUAbR5lKGI0npRKdlkSKlQhczc0iXIpZ0KYrJkkRGKwmOziCJiRTRdPZrRJG0npubhcWs/+cjqtWNCPDTERsnXc+2C1MysRcd8Wtss5WSHe+saxWi9m2Cj9OdfCBFGGUjJLNuM2OdbSeVwZweT3JJe4yZxNhEfIP9S9ztJG0qH3M68aUVpWwslkTfYPyFLZ6gDEJcyvBdfAZ6Oweyi0xKSpSWly8Ji06KXnRodQVS0ePn5KCYbhcVFpCfk4WD8on+Dz+yVYGMmNSbA28+w7qTmRTkJ7DvrZl8qB/L+F5Vv2PVTYczrvfvLJ61goNJ+RRmnuGzae3x6beUv8rrZJy7hbmzd3JREtHkqLd5aa0rkyZ2keKUq5HLlrmz2XkxD11yFG+/tBbXSRPpcvWKggaEEJcyvN4jnMW3d2BOnw6MDA2iY3AgXp6emDWOFCg/KgsDWwZQIEUviUmJFOSm4O3lSnb2lTMNVBc1QVM2suNxE0sGBuDqGcH0qC58uHcZg6ozoFHdgqnrNjNNvZIx4d54BPdnQeoo1q1/glA7M+cXd0HVaRExtnZZHHrSXfMuvX09CHt0P11X7mBu56qImQM9u2t4t7cvHmGPsr/rSnbM7Sz8fAWX0XD8XK7gtttu46OPPlKW5aErKCA7M5tcKWK5JJV0iwY3J0d8HTWKuMSc+Z3U+Au0DfLm7nvHY2dXtz62lUfRbQ/zmjaSe6rj9qA8im7L4de0RFaroqChISKXCnBxdiawaQDhYSH07diOXv6etLQrwr5Ai2ORHpWUCo0fPYZh9z1c54RFILgRCHGpAvJTF/lRdVhYGB3ataVNiyAmjL6fwMBA2xkCgeBKhLjUAHc3d0Vw6jLqFk9zqKCaKZGMugVPHyoQKZHgqghxuQrCz0UgqBlCXCpB+LkIBDVHiEslXCs/F4GgISLEpQKunZ+Lhcw1Q3Fr/yrK3GeXYSZ2cSdUY7bZtivCQn5yMrlX7TSg58tx7qhtXf/lorazx7Vxa/o/uYE/auHIQmFMVX8R4lIBtcnPxXh4Lr2HLOVslZp+1DSdsRd9cdf/Ii0x22bg+sVjPLLsrJhbWnDDEOJSDjfOz0VNy1knsGwebtsuH3N2KmmGGvZ1VDvh3+MJXp0QwIkde7DZvggE150GKy7yp7peHtVcWFhSirkefi7lUzYtMpG4/WXujvDHzcmNpp1Hs2B/OsaLyxg0/GOSzi6ku/tIIms4G4pRfp1yqiRvVGhMVdmx6plWlaWmxlRXrSeo1TRYcTl79ix33nknXl5eJUXmevm5XJXCvcydvIvbVkaTlZfGgTkerJw4j4P+T/H9tmkEhr/AIe1Wxld38jRTPgk/LuLNyAxuGzYQf3VlxlTXyLSqHGpqTFVpPUGtpsGKS9u2bfnll18ui1xump+LjJS+uGji2L02km8OJeA2bBUxF5fSp9qjAc0k/rc/jsWNuvYehI3+FJd/beCTf7fGrjJjqp8uXBPTqnKpqTFVZfUEtRrR5lKGm+bnIuPQl/nbF9EraRUzBrbG16cVg1/eQVK1W2BLG3RNuefYOP0WAjqM5bmZ99BM7lRbmTFVSuI1Ma0qj5oaU1VaT1CrEeJShpvm52LDo+MkFm39leScDM59NRnzimksPFTzz2i1e2vG/r8vmOP+ASNHvM1ROciqzJiqSeA1Ma0qj5oaU12tnqD2IsSlDDfPz0W6cvJqBjfpx4LDaRg0nvgH+uJk54OvlxqVoyP2eRlSFGWg2Gmyyti1YNJ/32dAzDwefeNn8iszpurd4pqYVpVLTY2pamxoJbjZCHG5ArnjnK8UnfRp1oQxTT2ZKqUIk5p5MTLEn9HtWiphf5HJRK5Wi7tXIB0HPo13I19b7YoxnlnAbfalndtUKkfuWHbRdlT65A6YwPLlXfhhYjgeDi40G7qB4EUbebadGk2HoYzy/ZJRwUP46GL1nyWrA8ey5P0RZC6bzus/6SoxprpGplVShHHNjKlqbGgluOlIN8sN4fDhw5bbbrvNtnV1li9fbpk6dapt6+rI565YscK2dXVuvfVWy5EjR2xblWM2my3JycmWP/74w3Ly9BnLkd/PWNZt2mxJTEy0nSGoDFPsEks3p3GWb4tsO6pITesJagcicqkCcqQh/FwEguohxKUG3DQ/F+NhXmxjXya1urw4DV9rnRVRIKgFCHGpS2i68c65IqXdp7xSuG0S3jdB865GTY2pamxoJagVCHG5CsIsSiCoGUJcKkGYRQkENUeISyVcW7MoLaciX2DELQE4q1Q4Nwln0BP/5afUqnaSK/V0MccuppNqDNtuch944cUiqAwhLhVw7cyiZPI4NKcPPWafZ8DSn0nWG0g78QmPqP/HkE4Psinx6n1XqufpIhDcfIS4VMC1NIsynVnClIWuzN/zGU/3C8HLwR63wNsY/5/dfHLHXqa/8C05tnMroqyni7rlLE5YNjNcNHQKajFCXMrh2ppFmTn3+SdE3z6d8SFXqkEjhv57Ao5frGNfrjyTYSiT353HsBBXNM5B9Jy+lugC6QpXeLqs/71sWmQh6+BSJnT1x0llh2foQGZu/gvFgUX2Q2n5ALOfu4tQdzvUbqHcPe9HMmWNMiWy/eW7ifB3w8mtKZ1HL2B/uvBiEVw7Gqy4JCUl8cEHHzBnzpySUsy1NYsyEnvmPI3ahmJ1jLkcTWgH2hrOES2bLJljWLMihok7EsmO3cCws08zfM4hippd4eniZqssYUlYzdjBS7E8uYtEXQ6nVvThyLQBPGc1YJFu8s/51vIse1J0ZOx7mKz5j/Gf02YK985l8q7bWBmdRV7aAeZ4rGTivF8or4laeLEIakKDFRe505larcbBwaGkyFx7sygzRUVmNHZ2pTYGZZH7qMj/lPvRhRHzl/BAGy/c/Pvy4sIpGD6J5EiFDaYWkratIqr7XJY83BEfZzeC+89m2QwN69f8bBUKB9krZTDNFa+UhxgZHk9Mohm1kwuauN2sjfyGQwluDFsVw8WlfcofbSy8WAQ1oMGKS0BAAI8//vhlkcv1MYtyoFVECGnRf5XbrmI6f5pz9m0Ibyr9KtT+tCk1L0Ed0JzAnGTSKwyOzGQkpeLSsnmZznN2BLQIpjAlFUX21L40KrmkBkcHC2ZJyBz6zmf7ol4krZrBwNa++LQazMs7kso18BZeLIKaINpcynB9zKLUtBv7MOF7l7Lyzys/s7PY/t9P0d07gTvlVMecTnypeQnmxFgSfYPxr3AQsJpGAX7oYuPKdPs3kRx7EUe/xtgcWKQozbZyGR50nLSIrb8mk5Nxjq8mm1kxbSHl2ccILxZBTRDiUobrZRZl1+4ZVr5o4LUBY1m6P45cKb0qvHSSTTPvYvzOXvx30Qhbe0wuW+bOZufFPHTJUbz90lpcJ02ki510A5fr6aIicMQkeh94k2fWnZSirXwS9r3FzA/1jB3fq5Kb2ELy6sE06beAw2kGNJ7+BPo6Yefji1d5fxHCi0VQA4S4lOH6mUW50X3eTxx9rz1Rs/rQVBIor/Zj+bhwIt/8toXxQcW/Bgd6dtfwbm9fPMIeZX/XleyY21kRics8XZJKn+qog6awccfjmJYMJMDVk4jpUXT5cC/LKjVgUREwYTnLu/zAxHAPHFyaMXRDMIs2Pks7tfBiEVwbVFJIX1lMf804cuQIM2bMUJZVYcWKFcq5H3/8sW1P5UybNo1u3bopy6pw22238dFHHynL8tAVFJCdmU2uFLFckkq6RYObkyO+jhpFXGLO/E5q/AXaBnlz973jsbP7h5/HZvlRdFsOv6YlshaN1FMeKbc9zGva6g0grGk9Qf1BRC4V4OLsTGDTAMLDQujbsR29/D1paVeEfYEWxyI9KikVGj96DMPue/ifC4tAUA8R4lIF5MfWwixKIKgeQlxqwHUxi1K34OlDBbUqJZIRXiyCmiLE5SoIPxeBoGYIcakE4eciENQcIS6VcG39XASChoUQlwq4ln4u+i1jFYMoq5G2GrWdI+6BHRn20lZia3tfeEs+ycm5VKu/gvkCy3q4MEG4SDVohLhUwLX0c5Gxa/4U+w2ykbYZs1FL3I4ZOHzyMJM++Mt2Rm3EyOG5vRmy9Gy5Y44EgsoQ4lIO19bPpRxUDjS6ZQrPjm3MsR0/2HbWRsxkp6Zh86gSCKqFEJdyuLZ+LpWgkv5r7KUVA+c/f5HhHQOVcUvOjdsy9NWdpJj17J8RQMAT+xXzJ4WiA8xs2Za5J2JY2iucxxbPZ1S4JxrHJnT/99ec/mUx97Vxx87Bl25PbkO2iZGHLWT+soSJPZrh6eSCb/hgnv/ivGLJULGhlJmLywYx/OMkzi7sjvvISLTypYpRehSXb25lxUzKnncYHdEIB40nYXe/yY9WF6mr1BPUFxqsuGRlZdG1a1dbO4i1yFx7P5dyMOWR8NMy3tqQRd+R/THHfsSEJ08x+NMzUjpWSOqPT6Fe/gTLTmjoOW4M6o1r2WcLkAwHP2WLx3geirCTrnOOVeuzeHJvCtqz8/BaOZJeL+fwzL5LaKMX0Hj9TD743YQ5cT2TR71H5uhITl9K5OB7txD1rzG8ddwqjOUbSkGzp75n27RAwl84hHbreP42WqkCcyurEOrZtyeDqdvj0abt4ZHcd3hs6SlJcq5WT1BfaLDiEhMTg9lsvqxcHz8XK6a4ZdzhYGvQdWrCLRM34zpjI6smN0Pd8il+Sf6Gx4LziT3xM/sOxqFTZ5CWacGh+3gedP2SdbvluEHPgQ1f4D/hQdoovzkH+v37BfoHOuPcfAB3hdtzx+PPcnuAMy4tBzKgdSoJqVIEsW0du4MeZ+HMvgR5eBM67A3mDksiMvKo1VulAkOpq1OZuZUjA2a9ypBmrjh6d2HcmPYkxCTY2m6qa4olqIs06LSobNQil+vj52LlsgbdIilCiD3IxtmDCJCHJelO8uGDbWkc0JkRM95m0/Fs1PYWWb/A/lbGj/Ph6zXfkVUQReTWFkx6IMT2i1PTpImXzeFOg8ZejbuHi7IlH7NTy9/PRGpiKvpfZxOhKX6vLgxdLQlPXLzVFa4CQ6mrUqm5lZrGpS5S2Gk0mE1G61OnaptiCeoiDVpcruR6+blUjoXkyJk8e+5Bfsy4xNmDO/hk8cN0UBULloZbHhpH4K5P2bxpHdvCJ3FfcOmvTaW+2q9QjW8TH5zu/IAEkyw2xcWMbvNYnG1nSZpTfa5mblXRRattiiWoiwhxKcP183OpHIscJhhyydAaKNJeYNcbL7AqUY9ebw0f7CIeZEKL75j1xFfcMmkkAdUSAjVNh4+j9++LmbXiIElSFJZ55jOmtfeh39K/rvKIWYWjoz15GenKY/m/x2cVm1tVTk3rCeoSQlyuQO445ytFJ32aNWFMU0+mNvdmUjMvRob4M7pdS+VTv8hkIlerxd0rkI4Dn8a7ka+tdk1QETjhfRZGfM+YYBc829zHKqdnWfCQG9Fn4qwNoOpwHhjfmnxTPx4Z0cSWBlUddYuprNs8DfXKMYR7exDcfwGpo9ax/onQq7jCaegwdBS+X44ieMhHXPhrMV1UnVhU6iJVoblV5dS0nqAu0WDNoqqD/CNKTU1FKwlKYZEROaCIjj7NgN69bpjtgu7r8YSuv5+zm++jtCXjJlJTc6taaooluPaIyKUKyI2gN83PxWzCqI8lcvkRhk4bXDuERSCoAkJcasB18XOpANPJN+ng1YllQe/y5sBiP3+BoPYjxKWWY9fpDaILcvh9+b0E1KbfVk3NrWqpKZbg2iPERSAQXBcahLj8/vvvnDx5kt9++43jJ05w/Phxfv31OMeO/cqOHd/xy4EDtjMFAsG1osFELu3bt6ddu/ZESMv2ER2I6BAhlQ40bRpI67Awzp+PtZ15NUz89V5PHOSerk6DWJ5S5mFb4Qne6N6dt84VP6q9EgO7HvPHTq57RXEevZG82MV0Uo1hmxHM0a8TohrHzhr1zzOT+N8BOMrXdryDZRcrej0CwfWjQYhL2aftFqWXiNxD1brt5eWF2WwhNva8dUcVcRqxnuzC75nub2vY1f7GB2Pv4fUjhdbtSvB6eBuF0guQX1dxKdjyAMUd9/85aprO2ENh5hqGOdp2CQQ3mAYjLrKWlEhMmRU/P388PD1xdqn5kxhz/AYeiOjH//MYyO3uNf+RqlvO4oRlM8NFW6egHtDAIpfLJEah5EjJOTXA4svw1Sc5sfpRwmV7lhpiLpMWXYYlk1+WTKRHM0+cXHwJH/w8X5y3jc0xJbL95buJ8HfDya0pnUcvYH+6SIMEN596Iy4ZGRls376dBQsWlJRiioVDXijFulW8ImFNTWqKutkgJvQPxrGKXV+y1w3HqWybi/MYNlVolmQmcf1kRr2XyejI01xKPMh7t0TxrzFvIduxFO6dy+Rdt7EyOou8tAPM8VjJxHm/KEZQAsHNpN6Iy9ChQ5Ues3l5eSWlGCUtukw7rMJi3WU79g/Epbr8rc2lYDNji4cnX4klhW3rdhP0+EJm9g3CwzuUYW/MZVhSJJFHi1A7uaCJ283ayG84lODGsFUxXFzaR4zTEdx06o24TJkyhQ8++KCCyEX5ai3KDW3dkr9aj8nxgW2ltmFKJTFVz6+zI9AURzouQ1mdmkBcvBGHvvPZvqgXSatmMLC1Lz6tBvPyjiRhqC246TSMNhebiJSKikypsMj8k7TouqL2pYmPE3d+kKA45ZVEO2Ydm5Vwx4OOkxax9ddkcjLO8dVkMyumLeSQcHUT3GQaZoOucoNa98gox8vuqE2omzJ8XG9+XzyLFQeTyC/M5Mxn02jv04+lfxlJXj2YJv0WcDjNgMbTn0BfJ+x8fPFqEL9ZQW2m4YiLTVCUYt2p7C8WHrNtWftQ02LqOjZPU7NyTDjeHsH0X5DKqHXreSJUQ8CE5Szv8gMTwz1wcGnG0A3BLNr4LO2EuAhuMg0ocpFVpVRQ/iYl10JcNHeyPP04L1vds8vBgbtWpJCxdhjl9W0r289F3fZ1zls+ZbD8aFvdhH4vbuBIfC4GQz4pJ7/m/4YGo3SHsW/BqMXfcy6jEKM+i5h9/5WEpqLWYYHgxtEwPt8k4Thy9CjHfj3GsWPHOHrsqLR9hCNHDnP48GEOHTrEhbiLtpMFAsG1oEGIS/fu3endqxd9evemb5/e3N6nD3f07csdt99Ovztu585+d/DopIdtZ1eNwq8n4nXl2KJag3VskVOjR/hGTAYkuEmIzLza2BH63AEMcmpVdmxRrcI6tkgvv0b9fp5qJn7NghtPg/2rGzZsGOfPX32woslkwmQWvUYEgurSYMUlJSWFzMxM21b55BQUsGP/biK/2MI3e77j+/17OHryGLHxcWRpMzGYRCd7gaAiRLxcCflGC23D2hMa2g6LgydxablEHY9m694o1m3+mk1ffcn5P0/YzhYIBGUR4lIBuiKTMoeRvac3IWGt6dCpE137DSDi9oF4d+xKeuPmGBuH8e3m5bYaFWEm+vUQVON22rZvLJb8ZJJza0Ojs4X85GSu50sxX1hGD5cJbBe9k2sFQlwqIKtQr8wymJpXwJ8Z2SRla0nT5ikT0hstKjRunrTydCEvJ91WoxZiPMzc3kNYevbmtxkZD8+l95Cl1IKXIrhBCHEphwxJQBIkUUnWFqA3maUoxkh8bj6X8mXBMZAvbbdwd8ZUZMBo0Nlq1ULM2aSmGf7eYfAmYM5OJc1QGx/bC64XQlzKITojl1y9kUwpekmUREWrL8IgiUy6rlAqevKKimjn60VObq4kMNUzuTWc/5wXh3ck0M0BjXNj2g59lZ0pZvT7ZxAQ8AT7S/qlFHFgZkvazj2JyZLFwaUT6OrvhMrOk9CBM9n8l/VE8x9v0cl7GnuKUwHzORbc0ojHdp9n2aDhfJx0loXd3RkZqbWdUB5mLiztRfhji5k/KhxPjSNNuv+br0//wuL72uBu54BvtyfZlmw1oaroPcj+wonbX+buCH/cnNxo2nk0C/anY7y4jEHDPybp7EK6u49EfimWzF9YMrEHzTydcPENZ/DzX6D4X5n/YlG3UMY8NYEIbzdCntxNWfk2X1hKz9DJvDtvGCGuGpyDejJ9bTQldjjmFPa8M5qIRtJr8wzj7jd/JEvWNGWmx1AmvzuPYSGu0usOouf0tURX6KMj+Kc0WHGRzaX69OmDi4tLSZGJy8kjTqsjR4pQMiUxydYbSM7TSdFMIXqjkXxDEXlSZOPiYEd+fh6FunylXpUwx/LRhCc5NfhTzmQVUpj6I0+pl/PEshNoeo5jjHoja/fZbiXDQT7d4sH4h9qTvHosg5daeHJXIrqcU6zoc4RpA55jf2VBk7oZT32/jWmB4bxwSMvW8e62AxVh4tyq9WQ9uZcU7Vnmea1kZK+XyXlmH5e00SxovJ6ZH/xe6XswFe5l7uRd3LYymqy8NA7M8WDlxHkc9H+K77dNIzD8BQ5ptzLeNZH1k0fxXuZoIk9fIvHge9wS9S/GvHVcklQJYwzfxfRiS2wyxxbc/jdvYXPMGlbETGRHYjaxG4Zx9unhzDlkU2X9PvZkTGV7vJTG7nmE3HceY+kpmzOfOYY1K2KYuCOR7NgNDDv7NMPnHEL0M7w+NFhx+euvv5RH0enp6SVFtjTYG5dKbqEkLJKAZORL4iIttZLAyG0tuYVFGE0mgl0cpT9UCwa9XhKXaqRF6pY89Usy3zwWTH7sCX7ed5A4nZqMtEwsDt0Z/6ArX67bjRxj6A9s4Av/CTzYOoVtq6LoPncJD3f0wdktmP6zlzFDs541P1/bR+EO/f7NC/0DcXZuzoC7wrG/43GevT0AZ5eWDBzQmtSE1Mrfg1qKQjRx7F4byTeHEnAbtoqYi0vpc4VzlSVlG+t2B/H4wpn0DfLAO3QYb8wdRlJkJEcVdXGg34RxhHu54+1Rju2VywjmL3mANl5u+Pd9kYVTDHwSeQQleHMcwKxXh9DM1RHvLpJgt08gJqG4oceFEfOX8EAbL9z8+/LiwikYPonkiGgAvi40WHGxs7O7LGqRy5GkdKLTskiRUqGLmTmkSxFLuhTFZEkio5UER2eQxESKaDr7NaJIWs/NzcJi1isDIauGjpMfPkjbxgF0HjGDtzcdJ1ttL11Drm/PrePH4fP1Gr7LKiAqcistJj1ACBkkpbrQsrm3Mm+Bgl0ALYILSUktL2oqZ1BmFVE3aYKX7ZtoNPao3T1Koga1ndr2Pit5Dw59mb99Eb2SVjFjYGt8fVox+OUdJF3RiGtKTSRV/yuzIzQlVp8uQ1dL4hVHvHKja/Bu5KacWx5q/zaElARiagKaB5KTnG6NetSN8SmZUNtOeh9mTEbbT0TtT5vSiqgDmhOYk0x69TJbQRURbS5l+C4+A72dA9lFJiUlSsvLl4RFJ0UvOrS6Aqno8XNywM1BQ1FhAfk5WTgof7xV++u0JEcy89lzPPhjBpfOHmTHJ4t5uIOqRAw0tzzEuMBdfLp5E+u2hTPpvmDU6kYE+OmIjZOEzHYepmRiLzri19hV+g3aoS4yUFR80JxNeloNDbpV6qv+QVztPXh0nMSirb+SnJPBua8mY14xjYVXOFepfZvg43QnH0gRRckodamYdcV2n5LgKGeWjzk9nuSSoM1MYmwivsH+JdaeklaVjzmd+NKKmBNjSfQNxl94gl4XhLiU4fUe4Sy+vQNz+nRgZGgQHYMD8fL0xKxxpED5UVkY2DKAAil6SUxKpCA3BW8vV7Kzs6wXuBoWs3QrGMjN0GIo0nJh1xu8sCoRvZReKXJgF8GDE1rw3awn+OqWSYwMkO4SVSAjJvXmwJvPsO5kJgX5Cex7ayYf6scyvpeD9EHdkuaWfWz6NkGKqjI4vuJtNiTbbnWVI472eWSkS9+v+NP7n1LJezAlr2Zwk34sOJyGQeOJf6AvTnY++HqppZfiiH1ehhQJGjAHDmdc799ZPGsFB5PyKcw8w2fT2uPTbyl/VeVRde4W5s7eyUUpskyOepuX1royaWIXKU65GrlsmTubnRfz0CVH8fZLa3GdNJEuV68oqAFCXK5A7jjnK0UnfZo1YUxTT6ZK6cikZl6MDPFndLuWyidskclErlaLu1cgHQc+LYXwvrbalaMKnMD7CyP4fkwwLp5tuG+VE88ueAi36DPEKeqiJvyB8bTON9HvkRE0UT6B1QRN2ciOx00sGRiAq2cE06O68OHeZQySI3zPe3n343uIeS4CT68uzIoZyRODbR/Fmg4MHeXLl6OCGfLRRauA/UMqew8X/SawfHkXfpgYjoeDC82GbiB40UaebaeWXspQRvl+yajgIXyU0Iyp6zYzTb2SMeHeeAT3Z0HqKNatf4LQcm508/nFdFF1YlGM7R049KS75l16+3oQ9uh+uq7cwdzOVQk/HOjZXcO7vX3xCHuU/V1XsmNuZ2Fmfp1QSTfLNfpIq5wjR44wY8YMZVkVVqxYoZz78ccf2/bcPOQfUWpqKlpJUAqLjOilv/Ho6NMM6N1LmXHgmqL7mvGh67n/7GbuK2k7EBSjPIpue5jXtJHcU53J45RH0W05/JqWyGpVFNQUEblUAbnB0d/fn7CwMDq0a0ubFkFMGH3/NRYWue1GT2zkco4MncZgISyCOo4Qlxrg7uauCM41xXSSNzt40WlZEO++OZCaTy5bDsbDvNjGvuTJzJXFafhaa0czgeAaItIigUBwXRCRi0AguC7USXH5/fffOXnyJL/99hvHT5zg+PHj/PrrcY4d+5UdO77jlwMHbGcKBIKbRZ2NXNq3b0+7du2JkJbtIzoQ0SFCKh1o2jSQ1mFhnD8fazvz6pj+eo+eDnL7gxODlqeUdlYrPMEb3bvz1rmKH+Iadj2Gv93f2zFUzqPZmBfL4k4qxmwzYo5+nRDVOHbWqDeo1XDbUb6u4x0su3gtHioLBNeXOikuZZuJLEpfTrmHp3Xby8sLs9lCbOzV/XEvw2kE67ML+X66v7V3qPY3Phh7D68fKVQOV4rXw2wrLO1pqpSCLTxw5Yi7GmM13C7MXMOw8iY8EghqIXVWXGQtKZGYMit+fv54eHri7FLz5y3m+A08ENGP/+cxkNvd/8GPSN2SWScsbJZnORMIGhh1PHK5TGIUSo6UnFMDLL4MX32SE6sfJVye8bCmmEvTosuxkPnLEib2aIankwu+4YN5/ovzKKNeTIlsf/luIvzdcHJrSufRC9ifLtIgQd2j1opLXl4eZ86c4T//+U9JKaZYOOSFUqxbxSsS1tSkpqibDWJC/2Acq9qVJXsdw53Ktrk4M2ZTxS5E5sT1TB71HpmjIzl9KZGD791C1L/G8NbxIgr3zmXyrttYGZ1FXtoB5nisZOK8X6zCIxDUIWqtuNx6661Kr9g//vijpBSjpEWXaYdVWKy7bMf+gbhUm7+1uRSw2Tq8txwspGxbx+6gx1k4sy9BHt6EDnuDucOSiIw8ikmKZDRxu1kb+Q2HEtwYtiqGi0v7iPEvgjpHrRWXO+64g88//7yCyEX5ai3KzWzdkr9aj8nPV2wrtQ4TqYmp6H+dTYSmONJxYejqVBLi4lH3nc/2Rb1IWjWDga198Wk1mJd3JEm1BIK6Rd1sc7GJSKmoyJQKi8w/SYuuL2p8m/jgdOcHJJjk11xczOg2j8UZDzpOWsTWX5PJyTjHV5PNrJi2kCssUQSCWk/9aNBVbk7rHhnleNkdtQo1TYePo/fvi5m14iBJ+YVknvmMae196Lf0TxJWD6ZJvwUcTjOg8fQn0NcJOx9fvOrkb0rQkKm74mITFKVYdyr7i4XHbFvWRtQtprJu8zTUK8cQ7u1BcP8FpI5ax/onwgiasJzlXX5gYrgHDi7NGLohmEUbn6WdEBdBHaPWDlysjEOHD9O5UydMpopbVg4dOsid/frZtipH7qHbp0sUT8R/xQRP285aiCVrLSOar2LQqR94qplQG0Htpm7+hUp6eOToUY79eoxjx45x9NhRafuIJFyHOSwJz6FDh7gQd9F2skAguCnIkcuNQLrpLbfddpttq3Zh/PNdSw97OQhytAz8KNkipVS1DJMl4YP+Fgc5A3S43bI0zmTbLxDUXupkWiQQCGo/9SZxf+ONN/j2229tWxVjMpkwmUWvEYHgelNvxCUhIYGkpCTbVvnkFBSwY/9uIr/Ywjd7vuP7/Xs4evIYsfFxZGkzMZhEJ3uB4FrRoB455BsttA1rT2hoOywOnsSl5RJ1PJqte6NYt/lrNn31Jef/PGE7WyAQ/BMajLjoikzKnET2nt6EhLWmQ6dOdO03gIjbB+LdsSvpjZtjbBzGt5uX22pUhIXMNUNxKhmkqMbO0ZOgLmN4e39a+Y/GKxwdLWPm3Fud8Z3+g237+mK+sIweLhPYLnr8Cq4zDUZcsgr1aA1GUvMK+DMjm6RsLWnaPGWCeaNFhcbNk1aeLuTlpNtqVI6m3SscLZI77ZnQZ53j8/FaFj84k63ZN6R9XCCo9TQIccmQBCRBEpVkbQF6k1mKYozE5+ZzKV8WHAP50nYLd2dMRQaMBp2tVlWRhMnFn26PPMBt2lOcLM+CUphGCRogDUJcojNyydUbyZSil0RJVLT6IgySyKTrCqWiJ6+oiHa+XuTk5koCU32TW7P+EkfWbuZU6xEMbWMn7fiLRd1CGfPUBCK83Qh5Yj1vl0mLTKm7eWNEW3ycXWja9ykiz5VaaZrT9/PWfR1o7OJCky6TeP+VwXg+uBXZHcaS+QtLJvagmacTLr7hDH7+C86X0watzEoYOpl35w0jxFWDc1BPpq+NVq6hYE5hzzujiWjkgMYzjLvf/NE6b5EyK2Eok9+dx7AQVzTOQfScvpboiq1pBIIKqTfiEh8fz/PPP694wBQXmbicPOK0OnKkCCVTEpNsvYHkPJ0UzRSiNxrJNxSRJ0U2Lg525OfnUajLV+pdDeOZBdxmb213sXPyo8eLJ7ltxnjaF3vcGmP4LqYXW2KTOTa/W6kfizmB1ePHsKnpWxy6lMbxd1tx6JuzVksFSxLrJt1PpN+bHEhN58zH3di3Zhd6pV4i6yeP4r3M0USevkTiwfe4JepfjHnrOOXJoTlmDStiJrIjMZvYDcM4+/Rw5hxSrgT6fezJmMr2eCk13PMIue88xtJTtojLHMOaFTFM3JFIduwGhp19muFzDllfg0BQDeqNuHz11VecO3dOmW6kuJgsFvbGpZJbKAmLJCAZ+ZK4SEutJDByW0tuYRFGk4lgF0kRzBYMer0kLlVLi0rbXCyYCtL4/dN7OT/zbmbtyrWd4UC/CeMI93LH26PU6smSup1PD/TgpfkjCXV3pUmPp3jnX2HKL8KS+BWrf+rLnLdHScdc8L31cd57pjNyMmVJ2ca63UE8vnAmfYM88A4dxhtzh5EUGSm9DuXSl+MygvlLHqCNlxv+fV9k4RQDn0QeQYmdHAcw69UhNHN1xLvLOMa0TyAmobjvjwsj5i/hgTZeuPn35cWFUzB8EskR0QAsqCb1RlwcHR3x8/O7rBxJSic6LYsUKRW6mJlDuhSxpEtRTJYkMlpJcHQGSUykiKazXyOKpPXc3CwsZn3JyOqqonbypf3oeczql8qXWw7a9mrwbuRmWy/FnJZAomMQgSVzQasJDGmOlExhvhRPomswgSXe4mr8WzRXxMWUmkiq/ldmR2hsT6lUuAxdTWpCHPHl3Phq/zaEuNs2pOsENA8kJzndGuWoG+NT8v3t0Gjkeapt71ntT5vSiqgDmhOYk0x6jaZEETRk6nWby3fxGejtHMguMikpUVpeviQsOil60aHVFUhFj5+TA24OGooKC8jPycJBudFqcCep1NJ/FfYOxY7ekgDY1sqi9m1KYGGcJHbFAmbhUkIyclKiahJEgDaepJLMzExqfIISbah9m+DjdCcfSBGGLH7FxazbTHmOmub0eJJL2mPMJMYm4hvsX5KeSdpUPuZ04ksrStlYLIm+wfgLn01BNanX4vJ6j3AW396BOX06MDI0iI7BgXh5emLWOFKgvHULA1sGUCBFL4lJiRTkpuDt5Up2dpb1AlXFpOX8t/NY+kNjho/sattZPqqAe5k66FfmP7eB6JwCMo8v59UPzyhtLurAETzSM4r5s7/mvFY6dnIVLy85ZhWXpsMZ1/t3Fs9awUFJfQozz/DZtPb49FvKX+WNZsjdwtzZO7koRWvJUW/z0lpXJk3sokRIlZPLlrmz2XkxD11yFG+/tBbXSRPpcvWKAsFl1GtxkZE7zvlK0UmfZk0Y09STqc29mdTMi5Eh/oxu11L59C8ymcjVanH3CqTjwKeldMbXVrtiSht01dg5BdDj2ePc+t7nvD3g76nQZaj8GbdmGzP073C7vzdtph6m+9heKPGOOohH13/GqAvPc1vjRrR/7Cgd7rkFe3t76X20YOq6zUxTr2RMuDcewf1ZkDqKdeufIFR+QHV+MV1UnVgUY2uYdehJd8279Pb1IOzR/XRduYO5nasSfjjQs7uGd3v74hH2KPu7rmTH3M7CIFxQbRrkqGj5LaempqKVBKWwyIheuh+jo08zoHcvAgMDbWfVBkycfC2Cobn/I/b93krbS1VQHkW3Pcxr2kjuqU7XGuVRdFsOv6YlsloVBYK/U+8jl/KQG0PlR9VhYWF0aNeWNi2CmDD6/psvLMYf+XdAUx5a9xdaoxHtH5/y9uoM+g/sWGVhEQhqCw1SXK7E3c1dEZybjqYPs9dPo+C9Pvg5uRI86L/YP/s1S+4pfXojENQVhFmUQCC4LojIRSAQXBdqTeQiG21rNBrkV2OR/5mt/TgMSue2XHr06IGnZy225hcIBJdRayIXJycn2rePkEp7pUR0iJBKB9q2bUtwcDMupaVhNpcz4rgc5KlCejrIj4mdGLQ8BXPWIf7zaF9CfV1wcPIm5I7HWXu6/G7+hl2P4W9n7QF7WXEezUadmdjFnVCN2QbmaF4PUTFuZ826rpoT/8sAR/najtyxTMxUIKh/1Bpx+VsAZduUoxlnZ2fy8/LIzMy07qwKTiNYn13I99O9+en1cbydMZrI3y6Re+kIS7sc4enRr3OgotF4f5tYXioFW3jAxXb8GqBuOoM9hZmsGVY80lEgqF/UKnEp/mf7L+/F3t6BgMBAPDy9qhy5XI4jty+NIfHrp+ne1A0nj1CGvz6TOxO/5/s/qmvUrablrBNYNg+3bQsEgoqofZGLbVFMyaYSQdjW/yHm7AwyLR54eVT38XOZtOgKKvZaMZG4/WXujvDHzcmNpp1Hs2B/ujKWSCCoz9wwcTEajWRkZPC///3vslJMsW7Iy1JBsS2lFSWiKd1RcyxZ7H7n/xF95yPcF1zB289ex3Cnsm0uzozZVIljUmVeK4V7mTt5F7etjCYrL40DczxYOXEev4iJBgT1nBsmLiEhIbRo0YKDBw9eVoqxtm3YNmQRkbdt68r+a6AroOfsioeZ+n0PPvjvJIIqevd/a3MpYHN5Q49tVOq1YpIiGU0cu9dG8s2hBNyGrSLm4lL6iME6gnrODRMX2V9l7969FUYuJQoiL63/lW1lt3XNtq+m6PljzUTufd+D+Tv+x5gKlaX6VOq1ou7L/O2L6JW0ihkDW+Pr04rBL+8gqbrNPQJBHeOGicvVKI5cZAEpFpFiYZFR1svuqBZ6zq0cz4gl3ry9ay0TQ69t2HA1rxWPjpNYtPVXknMyOPfVZMwrprHwkLB2E9RvapG42FZkabHdnMUU36w1w0LqV48z7P80vL7tv4xqdu2HAFbmtfJnwmoGN+nHgsNpGDSe+Af64mTng69XrfnRCwTXhVokLmabiCjyYttXVlSsx6qN8Tc+mL2evy5s5CFJWEoaaTVhPH/gGnk3VuK1EhY0geXLu/DDxHA8HFxoNnQDwYs28mw7IS6C+s0N6/5/NY4ePUZERATmCl6O7O7v4e5GQECAbU/FyD10+3SJ4on4r5hQm0cMWLJYO6I5qwadYv9TzWw7BYL6Qa35+MzLz+Por8f4VSrHjh2VxOYoR44c5vDhwxw6dIhTp0+XRDQCgaD2U2sil2uJErm0e56DRY4M/OgCu6b7l2uWfTORxxYNCnmCvQYHbl/6p4hcBPWOeikuAoHg5lNrWxW//fZbFi5caNsSCAR1jVorLomJifz555+2rcsxmUwYDIbLil4vF71S5KEGAoHg5lInn4eeOXOGCxcuEBsby3mpxJw/z3mpxMScJyrqJ349frzMI2yBQHAzqJPiIgtHq1atCAmRS4iy3ipULqE0adKYkJYtladLNcPMhWU9cJmw3Tqv8t+wkJ+cTK7QLoGgUuqsuJSiku/3kg52AQGBqNR2ZKRnWHdcY4yH59J7yFLOirFBAkGl1FlxkbWk7FcrFjw8PHB1dcXB4foMOzZnp5JmKP2OAoGgfOqouBSvlFmXkbdtK2UlpyaYU/bwzugIGjlo8Ay7mzd/zMJ0cRmDhn9M0tmFdHcfSaQWDOc/58XhHQl0c0Dj3Ji2Q19lZ4rNCsqSxeH/PEKv5m5oNJ6EDX6F7QnWZMuSdZj/PNKL5m4aNJ5hDH5lO8ohSya/LJlIj2aeOLn4Ej74eb6wuk79//buBSqqOo8D+HeGEYaHIDLAyMMnJCqYctZEy9bU9YVpuJD5ymS10kpTKzNNy5JSAyU3Szy+I0PLx5pYlplSrZpim67mAxBhgBGYYXjMe+a//7kzYPkMa4Rpf59z/od7597/PDhnvvP7z9z7v4BFgex5wxAt94HUJxQ9E1NwqML+WBZFNuYNi4bcRwqf0J5ITDkExyZCmgavApql5ORkJpVKWfv27RtavRO5ucxoMjO9wehoBqbXG5iuvun0LOfb7xx7N5aFFaT3ZnC7l83aV8hq9Sr2w5t9mVfnRewnC2OGL6aykKiX2FGTbdd8lt5HzoavOsXURgszac6w1SMCWKd5J5iZWVl5VgLzDx3NMnLLmVanZN8timOtB69nJZZylpXgz0JHZ7Dcci3TKb9ji+Jas8Hri1nRplEsKHQ4W364iGlUF9ieF3uzwNjXWK6RMd3+ZBYcu4AdURmZSVvIPp3ckYXPyGH8FbP9ycEsdsERpjKamLbwUza5YzibkWOwvyRCmkCzDZfVq1ezMWPGsIKCgoZW7/jxEzxcTNeHil7P38T2dignx7F3Y9nDxWPwJlZRf0v+CtbLewLL5m/wX4WLg9VQxYrPnWDf7F7P5g4IZK2mfMlMTMOyRnmy+1bm83u8hiaLjfK8j63Mv2aLVcHeH+jNYt88zcPJQbuXTZZHsjnfG5nh8LMsNCCOTVu1g317vpKHSj0DO/xsKAuIm8ZW7fiWna+kUCFNr9kOi9zc3NCyZUth9rr6Vk8Y9DiGRFcHP/bb6vHX5li6M+LAAPg6luHGhy5WC8zX3aUWP73/GLoEtkHPkdPx9raTqBK3EK65BKsaZWUMYWHB1409reoylLEwhAVfs8WihEJpQO6CaEjqz972iscGZTEKi8xw77cE2al9UbJ+OgbdI0NApyGYt68EFrij35JspPYtwfrpg3CPLACdhszDPpqRijQhl/1C17Fkb3z9umD5neFi+xXqducjsdJMzJpzDo8drsSVn49g34dpeDxGZA88sT+Cg0UoKSm/bjJusX8wgkUlKCm/ZotYhqAAKR56rxi8phFeh9CsWsc0m77oPikVu3JLoak8h93JVmRMXQZh3inf7piUugu5pRpUntuNZGsGpi47KtwtIU3BdcNFeOPZM0R4Mwvr9mZzs6kbfi+Rhwda1FaiosYIs9XKg8OI6soaGE01uLT/dby0XiEcJWxFSwwYPxTnV7yCzNNVMBrVOPXBSMhjFuO01wCMH3oeK17JxOkqI4zqU/hgpBwxb6oxfNz9OJU2GxlHSlCnV+HMx1PRLaA/0i+aUbphCIL6p+BYuRESPzlCZFK4BcjQSlSKDUOC0D/lGMqNEvjJQyCTuiFA1srxrAm5+1y4crGlytVAuS5KGhMu1nykxYrQIzXvtpf8kMTEI0G2EwnhQ7HGPA4rlkXjy6RwePl1xuj1UsxJGQufs2dQaBUhMGkdsmcCKwfJ4SFti1HbOuDdnXMRLQlE0rpszMRKDJJ7QNp2FLZ1eBc753ZHpymbsX2qGOuSouDvG44BKUokbN6CZyIkaDNhDdbEHsTEKF+4e7VF/NZwpGbNQVe3NpiwZg1iD05ElK87vNrGY2t4KrLmdHU8a0LuvmZ7VnRGRoZwXem1a9c6brnKNr+Lu1TKhwv2KLAHjLAk/LWtX7h4EePHPiZsJ4TcfS4ZLrYTE80Wyy2rE9sWTx5AhJCm4ZLDItv1o6UefDjBw+NmjYKFkKblkuFCCGn+XD5cbHO7WKx0PAchzY1Lh4tGp8O+Q18hc8cn+OzA5/jy0AEc/+kECooKoa5RwWihCzIT0lRcOlzqzAxdIrshIqIrmLsfCsurkXPyLHZ9nYPN2/+Fbbt3Iv/Cj469b85akIYeoiTsaeQEdtZzb6Gn7CnHmnNZL72LOK8JyG7kcySkqbhsuGhNFriJRWjh54+OkfcgpkcP9Oo/ENEPDoJ/916oCGwHc2Ak9m5f4+hBCLmbXDZc1HoDaoxmKGt1uFBZhZKqGpTX1PKhkgFmJoLExw+d/LxQq6lw9Lg5cYfZ+JFtx8N//JVeCfm/5ZLhUskDpJiHSmmNDgaLlVcxZhRV1+FKnS1wjKjj6+1besJiMsJs1Dp63dzVYZEVl9L7oMOYBXhhcARauonhEzEMbxxW2Xe0KPHV6yPRJcATXqH9MCPzHPT2LRyD6vuVmBjXFn5SL8iihuDFHfkw8tuVWYmQhz6BvWrbfhYUrH4IrWPm47hO6NjAeikdfSKSsfyNEejoLYFnWB88teksGnazluHA0kREt3YX5oAZtvgw1Ow39COkCTTbcNHr9cjLy0NmZmZDq3e2shrVBjNUvHpR8FCpMZhg5CFTodXzZkCtyYSuslbQVFfzgGns9aB5wHy6F2zOAZRpK/HN42oseXKVcHvxhvFI2haKt45eQfnJ5eh09LOG6S6tii1ITngHqsRM/PeKAkfeuRc5TyfhrZNmBD+6Gqse2I/nF+dAc3kjpi9S47lNr+IvtnMRr2HN24iMvInYp6hCwdYR+Hnmw3j1qMG+0fANDlROQXYRr9IOPIHqpU8i/bT9KOVb9iOkCTTbcLFNum07eDg7O7uh2RRqalFYo4WGVygqHiZVBiNKa7W8mtHDYDajzmhCLa9svNzdUFdXC722TujXGO4DZ2P+kHbw9vBH7NhHEFWUxwsTJbI/+jfiXl6CRyJawjsoDjOWPo1I4T/IULZnM74Km4Zls/ohzNcfESNex8IRJTwUj8MkCkLiqn+i1/axiP3rC1A+twmvxN7kID+vkViycgw6t/KBvN9cLPuHER9m/mCfLNxjIGbPH4q23h7wjx2HpG7FyCt2pNut+hHSBJptuMTHx+PgwYO/qlxs0xB8XahEtZ4HCw+QyjoeLvxvDQ8Y23ct1XqTcFpAuJcH/yhnMBoMPFxuPyy6lljWGi0dy5B4wJ3x6sBajmKFB8JCGmZ5gTikI9q52ZYsUCqUMOQuQLTEMQ+LyAvxG5QoLiwS3uCioOF4KgHIV3RD8hMx4M/whsTyzujY8OBitGkXAk1pBYT6SxyIgKuTzEAiscLimGTmlv0IaQIu9Z3LDyUVOFuuRhkfCl1WaVDBK5YKXsWoecjU8MDRGnmY8IqmZ3BrmPhydbUazGoQKqDGucFcLmIZQkP0KLysEs5bsmFXilEqjErEkAUFQPrQeyi2/OJMbR5K2u2Pwjb6MfxnGWZtaY1BfQqweNY2lN3kKVkrilDacHiOFYoCBWThctRPN85z64Zu14+Qu82lwuXzokoY3NxRZbIIQ6Ly2joeLFpevWhRo9XxZkCw1B0+7hKY9DrUadRwFz7d/4DPb1EbjJryN+QueQFbz2qgU53Emvnv44wwKhEj9OFxuP9UGmZnHEEJDzvVmY8xtVsA+qdfhEWfi5RJafCYn4W9u9ZixLEZmLa19MbTO1R/goULvsBlHpylOW/j5U3emDQxltcpt3Gn/QhxEpcKl9fiopD2YAxefSAGj0SEoXt4CFr5+cHKhy464aUwDOrQBjpevShKFNBVl8G/lTeqqoSfaX4nEeTjNmLPdAOWPiiHf+cpONb7UfRtYd8qbj8Fm7dPhXhdEqL8fRE+IAXKhM3Y8kwoTrwxCeneC7Hx+S5w9x+O1A+G4/jMafioxIz8tFiIeqQirz5p3Pugt2Q57pf5InLyIfRatw8Le/6G+uNO+xHiJM12yoXb0ep0qFJVoZpXLFd4q2AS+Eg9IPOQCOGSd+YUlEWX0CXMH8NGjRfm5G3uhJ+UuxzDoppMDG/EMTd32o8QZ3KpyuWXvDw9ERLaBlGRHdGve1f0lfuhg5sJLXQ18DAZIOJDofGJSRgx+nGXCBZC/mxcNlx+yfbrjFwuR2RkJGK6dkHn9mGYkPh3hISEOPYghNxtLjssIoQ0b3+KyoUQ0vxQuBBCnILChRDiFBQuhBCnoHAhhDgFhQshxCkoXAghTkHhQghxCgoXQohTULgQQpyCwoUQ4hQULoQQp6BwIYQ4BYULIcQpKFwIIU5B4UIIcQoKF0KIU1C4EEKcgsKFEOIUFC6EECcA/gctZIYXAPaDQAAAAABJRU5ErkJggg==;movable=0;resizable=0;rotatable=0;deletable=0;editable=0;connectable=0;" vertex="1" parent="1">
                    <mxGeometry x="-830" y="30" width="330" height="561.83" as="geometry"/>
                </mxCell>
                <mxCell id="9" style="edgeStyle=none;html=1;fontColor=#000000;strokeColor=#000000;" edge="1" parent="1" source="6">
                    <mxGeometry relative="1" as="geometry">
                        <mxPoint x="-790" y="540" as="targetPoint"/>
                        <Array as="points">
                            <mxPoint x="-206" y="730"/>
                            <mxPoint x="-790" y="730"/>
                        </Array>
                    </mxGeometry>
                </mxCell>
                <mxCell id="10" style="edgeStyle=none;html=1;exitX=0.5;exitY=0;exitDx=0;exitDy=0;strokeColor=#000000;fontColor=#000000;startArrow=classic;startFill=1;endArrow=none;endFill=0;" edge="1" parent="1" source="6">
                    <mxGeometry relative="1" as="geometry">
                        <mxPoint x="-670" y="230" as="targetPoint"/>
                        <Array as="points">
                            <mxPoint x="-203" y="222"/>
                        </Array>
                    </mxGeometry>
                </mxCell>
                <mxCell id="6" value="&lt;font color=&quot;#000000&quot;&gt;http://localhost/QLDA/Home/show&lt;/font&gt;" style="rounded=0;whiteSpace=wrap;html=1;fillColor=#b1ddf0;strokeColor=#10739e;align=center;" vertex="1" parent="1">
                    <mxGeometry x="-328" y="331" width="250" height="40" as="geometry"/>
                </mxCell>
                <mxCell id="11" value="Xử lý url: chia làm 3 phần: controller, action, params" style="text;strokeColor=none;align=center;fillColor=none;html=1;verticalAlign=middle;whiteSpace=wrap;rounded=0;fontColor=#000000;" vertex="1" parent="1">
                    <mxGeometry x="-544" y="199" width="182.47" height="30" as="geometry"/>
                </mxCell>
                <mxCell id="17" value="" style="endArrow=classic;html=1;strokeColor=#000000;fontColor=#000000;startArrow=classic;startFill=1;endFill=1;" edge="1" parent="1">
                    <mxGeometry width="50" height="50" relative="1" as="geometry">
                        <mxPoint x="-797" y="265" as="sourcePoint"/>
                        <mxPoint x="-782" y="501" as="targetPoint"/>
                        <Array as="points">
                            <mxPoint x="-841" y="265"/>
                            <mxPoint x="-839" y="501"/>
                        </Array>
                    </mxGeometry>
                </mxCell>
                <mxCell id="18" value="" style="endArrow=classic;html=1;strokeColor=#000000;fontColor=#000000;startArrow=classic;startFill=1;endFill=1;" edge="1" parent="1">
                    <mxGeometry width="50" height="50" relative="1" as="geometry">
                        <mxPoint x="-792" y="225" as="sourcePoint"/>
                        <mxPoint x="-783" y="497" as="targetPoint"/>
                        <Array as="points">
                            <mxPoint x="-843" y="225"/>
                            <mxPoint x="-840" y="497"/>
                        </Array>
                    </mxGeometry>
                </mxCell>
                <mxCell id="19" value="" style="endArrow=classic;html=1;strokeColor=#000000;fontColor=#000000;endFill=1;" edge="1" parent="1">
                    <mxGeometry width="50" height="50" relative="1" as="geometry">
                        <mxPoint x="-675" y="557" as="sourcePoint"/>
                        <mxPoint x="-653" y="504" as="targetPoint"/>
                        <Array as="points">
                            <mxPoint x="-554" y="554"/>
                            <mxPoint x="-556" y="501"/>
                        </Array>
                    </mxGeometry>
                </mxCell>
                <mxCell id="20" value="gọi app và router để làm cầu nối đến index.php&lt;br&gt;" style="text;strokeColor=none;align=center;fillColor=none;html=1;verticalAlign=middle;whiteSpace=wrap;rounded=0;fontColor=#000000;" vertex="1" parent="1">
                    <mxGeometry x="-985" y="380" width="150.8" height="30" as="geometry"/>
                </mxCell>
                <mxCell id="21" value="tạo đối tượng new app để chạy constructer trong app" style="text;strokeColor=none;align=center;fillColor=none;html=1;verticalAlign=middle;whiteSpace=wrap;rounded=0;fontColor=#000000;" vertex="1" parent="1">
                    <mxGeometry x="-791" y="573" width="161" height="30" as="geometry"/>
                </mxCell>
                <mxCell id="22" value="" style="endArrow=classic;html=1;strokeColor=#000000;fontColor=#000000;startArrow=none;startFill=0;endFill=1;" edge="1" parent="1">
                    <mxGeometry width="50" height="50" relative="1" as="geometry">
                        <mxPoint x="-656" y="268" as="sourcePoint"/>
                        <mxPoint x="-656" y="174.73684210526315" as="targetPoint"/>
                        <Array as="points">
                            <mxPoint x="-334" y="265"/>
                            <mxPoint x="-334" y="179"/>
                        </Array>
                    </mxGeometry>
                </mxCell>
                <mxCell id="25" value="file trong controller kế thừa router" style="text;strokeColor=none;align=center;fillColor=none;html=1;verticalAlign=middle;whiteSpace=wrap;rounded=0;fontColor=#000000;" vertex="1" parent="1">
                    <mxGeometry x="-557" y="141" width="126" height="30" as="geometry"/>
                </mxCell>
                <mxCell id="26" value="router set đường dẫn đến các file controller và view" style="text;strokeColor=none;align=center;fillColor=none;html=1;verticalAlign=middle;whiteSpace=wrap;rounded=0;fontColor=#000000;" vertex="1" parent="1">
                    <mxGeometry x="-511.00000000000006" y="271" width="153.68" height="30" as="geometry"/>
                </mxCell>
                <mxCell id="27" value="" style="endArrow=classic;html=1;strokeColor=#000000;fontColor=#000000;endFill=1;" edge="1" parent="1">
                    <mxGeometry width="50" height="50" relative="1" as="geometry">
                        <mxPoint x="-654" y="270" as="sourcePoint"/>
                        <mxPoint x="-645" y="364" as="targetPoint"/>
                        <Array as="points">
                            <mxPoint x="-556" y="270"/>
                            <mxPoint x="-556" y="361"/>
                        </Array>
                    </mxGeometry>
                </mxCell>
                <mxCell id="30" value="" style="endArrow=none;html=1;strokeColor=#000000;fontColor=#000000;endFill=0;startArrow=classic;startFill=1;" edge="1" parent="1">
                    <mxGeometry width="50" height="50" relative="1" as="geometry">
                        <mxPoint x="-598" y="466" as="sourcePoint"/>
                        <mxPoint x="-558" y="358" as="targetPoint"/>
                        <Array as="points">
                            <mxPoint x="-558" y="466"/>
                        </Array>
                    </mxGeometry>
                </mxCell>
                <mxCell id="32" value="thêm tham số gọi layout&lt;br&gt;" style="text;strokeColor=none;align=center;fillColor=none;html=1;verticalAlign=middle;whiteSpace=wrap;rounded=0;fontColor=#000000;" vertex="1" parent="1">
                    <mxGeometry x="-557" y="410" width="82.5" height="30" as="geometry"/>
                </mxCell>
                <mxCell id="33" value="" style="endArrow=none;html=1;strokeColor=#000000;fontColor=#000000;startArrow=classic;startFill=1;" edge="1" parent="1">
                    <mxGeometry width="50" height="50" relative="1" as="geometry">
                        <mxPoint x="-619" y="248" as="sourcePoint"/>
                        <mxPoint x="-645" y="95" as="targetPoint"/>
                        <Array as="points">
                            <mxPoint x="-598" y="243"/>
                            <mxPoint x="-594" y="95"/>
                        </Array>
                    </mxGeometry>
                </mxCell>
                <mxCell id="34" value="" style="endArrow=none;html=1;strokeColor=#000000;fontColor=#000000;startArrow=classic;startFill=1;" edge="1" parent="1">
                    <mxGeometry width="50" height="50" relative="1" as="geometry">
                        <mxPoint x="-623" y="307" as="sourcePoint"/>
                        <mxPoint x="-611" y="248" as="targetPoint"/>
                        <Array as="points">
                            <mxPoint x="-568" y="307"/>
                            <mxPoint x="-568" y="244"/>
                        </Array>
                    </mxGeometry>
                </mxCell>
                <mxCell id="35" value="" style="endArrow=classic;html=1;strokeColor=#000000;fontColor=#000000;startArrow=none;startFill=0;endFill=1;" edge="1" parent="1">
                    <mxGeometry width="50" height="50" relative="1" as="geometry">
                        <mxPoint x="-652" y="272" as="sourcePoint"/>
                        <mxPoint x="-614" y="305" as="targetPoint"/>
                        <Array as="points">
                            <mxPoint x="-530" y="272"/>
                            <mxPoint x="-530" y="307"/>
                        </Array>
                    </mxGeometry>
                </mxCell>
                <mxCell id="36" value="&lt;div style=&quot;text-align: justify;&quot;&gt;&lt;span style=&quot;background-color: initial;&quot;&gt;1. Controller kế thừa từ router&lt;/span&gt;&lt;/div&gt;&lt;div style=&quot;text-align: justify;&quot;&gt;&lt;span style=&quot;background-color: initial;&quot;&gt;+ có view, có model&lt;/span&gt;&lt;/div&gt;&lt;div style=&quot;text-align: justify;&quot;&gt;&lt;span style=&quot;background-color: initial;&quot;&gt;2. Controller gọi model và view trong phương thức&lt;/span&gt;&lt;/div&gt;&lt;div style=&quot;text-align: justify;&quot;&gt;&lt;span style=&quot;background-color: initial;&quot;&gt;3. Phương thức đó sẽ trả về file view và model&lt;/span&gt;&lt;/div&gt;&lt;div style=&quot;text-align: justify;&quot;&gt;4. View và model đó sẽ hiển thị ở trang thông qua layout&lt;/div&gt;" style="text;strokeColor=none;align=left;fillColor=#CFDFFF;html=1;verticalAlign=middle;whiteSpace=wrap;rounded=0;fontColor=#000000;backgroundOutline=0;" vertex="1" parent="1">
                    <mxGeometry x="-540" y="627" width="318" height="84" as="geometry"/>
                </mxCell>
            </root>
        </mxGraphModel>
    </diagram>
</mxfile>